<?xml version="1.0" encoding="utf-8"?>
<!-- Generator: Adobe Illustrator 16.0.0, SVG Export Plug-In . SVG Version: 6.00 Build 0)  -->
<!DOCTYPE svg PUBLIC "-//W3C//DTD SVG 1.1//EN" "http://www.w3.org/Graphics/SVG/1.1/DTD/svg11.dtd">
<svg version="1.1" id="Layer_1" xmlns="http://www.w3.org/2000/svg" xmlns:xlink="http://www.w3.org/1999/xlink" x="0px" y="0px"
	 width="800px" height="800px" viewBox="0 0 800 800" enable-background="new 0 0 800 800" xml:space="preserve">
<g>
	<path fill="#8B92C7" d="M518.38,544.091c-3.331,2.992-7.31,5.214-11.924,6.666l-15.771,1.284c2.907,3.933,5.342,7.951,7.31,12.052
		c4.874,10.088,7.181,20.646,6.922,31.67c-0.341,5.984-1.45,11.071-3.331,15.261c-1.881,3.848-4.234,6.709-7.053,8.591
		c-5.984,4.101-12.992,5.855-21.028,5.257c-8.377-0.685-15.129-3.805-20.261-9.36c-3.246-3.504-6.792-11.411-10.641-23.72
		c-3.421-10.856-8.207-18.294-14.361-22.313c-6.069,0.342-10.728,1.455-13.976,3.336c-3.591,2.052-6.283,5.343-8.079,9.872
		c0.771,3.419,2.437,9.104,5.001,17.053c2.224,7.692,3.248,14.66,3.078,20.899c-0.256,6.325-1.199,11.968-2.822,16.926
		c-2.393,7.521-6.151,13.379-11.283,17.566c-5.297,4.273-11.412,6.195-18.334,5.77c-8.719-0.598-15.3-4.359-19.744-11.284
		c-2.736-4.359-4.788-10.301-6.155-17.82c-0.857-5.303-1.54-12.61-2.051-21.926l-0.77-5.644c-1.111-6.069-3.549-11.968-7.309-17.692
		c-3.163-16.157,1.068-29.877,12.693-41.158c1.625-1.54,3.376-6.496,5.257-14.873c1.967-8.548,6.326-16.158,13.078-22.824
		c10.685-10.854,24.833-18.335,42.442-22.438c-9.062-2.906-18.977-2.48-29.747,1.279c-9.32,3.251-18.081,8.593-26.285,16.029
		c-6.84,6.926-11.969,16.154-15.388,27.694l-6.794,23.336c-3.336,8.891-7.439,14.018-12.31,15.387
		c-3.591-2.563-7.479-4.573-11.667-6.025c-4.7-4.017-8.678-8.119-11.924-12.309c-4.104-5.302-6.371-9.96-6.797-13.978l-3.333-16.283
		c-1.452-6.24-1.796-11.668-1.026-16.285c1.196-6.837,3.078-12.69,5.641-17.566c3.504-6.666,7.863-10.47,13.08-11.409l6.024-3.589
		c2.223-1.968,5.001-2.907,8.335-2.822c1.452,0.086,3.975-0.94,7.567-3.077c3.674-2.137,7.394-3.205,11.154-3.205l11.028-2.563
		l30.258-2.053l8.334,6.411c3.333,2.308,7.224,4.486,11.668,6.538c15.813,7.438,37.911,12.053,66.29,13.849
		c17.694,1.28,31.329,6.624,40.899,16.026c4.104,4.104,7.27,8.764,9.491,13.976c1.109,2.65,1.921,5.559,2.437,8.719
		c0.685,3.762,0.298,7.479-1.154,11.156C523.682,538.066,521.46,541.271,518.38,544.091"/>
	<path fill="#8B92C7" d="M233.607,278.678c6.325-0.6,16.624-4.572,30.9-11.927c13.418-5.212,24.961-4.188,34.618,3.08
		c-5.982,18.204-8.332,37.266-7.051,57.186c1.793,27.438,9.83,52.142,24.106,74.11c-7.181-3.762-12.608-6.797-16.283-9.104
		c-5.644-3.59-9.917-6.924-12.822-10.004l-3.848-4.741l-6.411-9.488c-13.935-8.292-27.783-9.957-41.545-5.002
		c-12.992,4.703-22.994,14.063-30.002,28.082c-4.615,9.059-7.735,19.917-9.36,32.567c-1.796,13.933-1.026,25.516,2.308,34.747
		l5.769,15.13c2.052,6.068,3.592,11.966,4.617,17.694l1.668,14.361c0.597,14.532,0.725,27.354,0.384,38.465
		c-5.47-4.019-10.943-12.009-16.411-23.978c-6.754-14.618-10.815-22.864-12.182-24.746c-3.163-4.358-11.966-5.559-26.413-3.592
		c-15.215,2.052-25.517,0.558-30.901-4.486c-26.584-24.703-31.415-53.854-14.488-87.446c5.556-3.589,9.83-6.88,12.822-9.872
		c0.17-5.813-1.411-12.992-4.744-21.54c-4.359-11.113-6.881-18.294-7.565-21.542c-4.018-18.292,4.017-37.91,24.104-58.854
		c10.429-10.77,20.517-22.994,30.261-36.669c7.096-9.917,15.302-22.522,24.617-37.825c-0.682,16.411,3.163,31.5,11.54,45.262
		C210.271,273.247,221.041,279.959,233.607,278.678"/>
	<path fill="#8B92C7" d="M505.175,125.069c17.524,19.064,27.868,40.303,31.028,63.724c3.165,22.995-1.58,40.221-14.231,51.673
		c-7.181,6.499-15.813,11.241-25.898,14.233c-9.491,2.822-19.619,4.019-30.39,3.59c-7.183-0.256-14.404-1.239-21.67-2.95
		c-10.088-2.393-19.488-6.109-28.207-11.153c-16.243-9.317-28.937-15.087-38.083-17.309c-8.292-2.052-17.053-1.839-26.285,0.642
		c-11.623,3.075-21.284,3.331-28.977,0.768c-8.462,9.403-15.257,20.517-20.389,33.339c-9.829-8.378-20.983-11.199-33.463-8.463
		c-13.506,4.785-23.551,7.349-30.133,7.692c-11.881,0.6-21.966-6.24-30.258-20.514c-7.439-12.736-10.985-26.029-10.645-39.88
		l14.618-25.387c5.814-10.086,10.94-18.25,15.387-24.49c-2.137,9.662,1.154,19.192,9.875,28.593
		c8.804,9.406,18.505,13.509,29.104,12.311c5.214-0.597,11.881-3.763,20.002-9.488c6.84-4.959,14.489-6.925,22.952-5.896
		l1.023,1.537c0.685,0.515,1.069,1.111,1.154,1.796c14.447,12.992,27.655,20.557,39.621,22.693
		c12.565,2.225,22.525-1.753,29.875-11.924l0.386-0.514c4.529-0.512,8.076,0.13,10.642,1.926c1.538,1.194,3.333,3.502,5.385,6.923
		c4.444,7.865,10.385,12.523,17.823,13.976c9.06,1.881,17.951,1.454,26.669-1.282c8.806-2.736,15.813-7.394,21.028-13.978
		c-7.607,3.848-14.788,6.155-21.542,6.925l-21.284-1.409c-3.246-0.685-5.812-2.606-7.692-5.771l-4.101-9.485
		c-4.019-8.207-12.27-11.927-24.748-11.156c0.855-13.248-1.583-25.688-7.309-37.312c-6.411-12.909-15.686-21.883-27.823-26.927
		c-11.455,0.682-20.857,5.47-28.209,14.361c-7.437,8.889-11.881,20.728-13.335,35.515c-8.633,0.342-14.743,2.138-18.334,5.388
		c-3.933,3.502-8.934,5.553-15.004,6.152c-10.085,0.94-18.419-2.521-25.001-10.386c-5.729-6.837-8.889-15.001-9.488-24.489
		c21.883-25.132,48.638-43.381,80.265-54.75c34.791-12.563,69.026-14.061,102.706-4.487
		C459.398,90.023,487.054,105.237,505.175,125.069"/>
	<path fill="#797FAD" d="M248.736,163.15c6.582,7.865,14.916,11.326,25.001,10.386c6.07-0.6,11.071-2.65,15.004-6.152
		c3.591-3.25,9.701-5.046,18.334-5.388c-0.171,1.626,0.17,3.891,1.026,6.798l1.412,7.178c-8.977-0.682-16.84,1.412-23.594,6.285
		c-7.778,5.554-14.234,8.634-19.36,9.23c-10.599,1.198-20.301-2.904-29.104-12.312c-8.721-9.4-12.011-18.931-9.875-28.593
		l0.514-0.767l5.383-5.644l5.771-5.513C239.847,148.149,243.007,156.313,248.736,163.15"/>
	<path fill="#8B92C7" d="M347.08,421.257l1.41,0.644l14.106,13.333l15.385,14.488c-9.23-4.018-17.948-5.515-26.155-4.485
		c-6.496,0.853-11.284,2.817-14.362,5.896c-1.196,1.11-5.854,2.864-13.975,5.257c-8.122,2.396-13.464,4.83-16.027,7.31
		c-5.814,5.641-10.344,10.728-13.594,15.257c-5.638,7.866-8.758,15.516-9.358,22.952c-0.514,5.129,0.213,11.455,2.18,18.977
		l4.104,17.31c0.255,2.31,1.324,5.132,3.205,8.463c1.796,3.25,2.819,6.068,3.078,8.462c-8.207-3.931-15.859-8.548-22.952-13.845
		c0-2.138-0.94-4.745-2.819-7.823l-4.49-7.564c-1.881-3.589-3.333-7.394-4.359-11.412c-2.563-8.117-4.231-14.488-5.001-19.104
		c-1.452-7.692-1.452-16.882,0-27.566c1.199-9.317,2.95-16.324,5.257-21.027c4.529-9.147,11.838-15.129,21.926-17.95
		c5.814-1.626,15.089-3.377,27.825-5.258C322.889,420.745,334.429,419.973,347.08,421.257"/>
	<path fill="#CEA6CC" d="M405.549,348.429c2.819,5.556,5.468,9.872,7.948,12.949c21.372,25.645,24.616,47.74,9.744,66.29
		l-0.898,0.387c-11.026,3.501-23.205,4.657-36.541,3.461c-13.165-1.112-25.601-4.318-37.313-9.615l-0.64-0.644l-8.462-7.053
		l-1.026-0.769c-3.506-2.395-10.9-6.495-22.182-12.31c-14.276-21.969-22.313-46.672-24.106-74.11
		c7.692-5.729,15.984-8.678,24.873-8.849c6.326-0.085,13.765,1.324,22.313,4.231c13.418-3.846,25.601-5.3,36.543-4.359
		c9.486,0.77,17.136,6.325,22.95,16.669L405.549,348.429"/>
	<path fill="#8B92C7" d="M250.276,555.375c5.212-14.104,10.213-21.114,14.999-21.028l8.849,6.926
		c7.093,5.297,14.746,9.913,22.952,13.845c6.496,3.165,12.307,5.473,17.439,6.928l2.563,0.896c4.188,1.451,8.076,3.463,11.667,6.025
		c6.837,4.53,12.521,10.384,17.053,17.567c3.759,5.726,6.197,11.623,7.309,17.691c-11.625-0.256-23.424-2.436-35.387-6.538
		c-9.15-3.162-16.885-6.84-23.21-11.028l-13.333,0.387c-4.959,3.933-8.678,6.283-11.156,7.053l-10.898-1.408
		c-6.07-1.797-11.284-2.651-15.643-2.566l-0.256-3.848C243.223,578.497,245.573,568.196,250.276,555.375"/>
	<path fill="#8B92C7" d="M331.181,411.77l-8.59-1.668l-6.411-8.975c11.281,5.813,18.675,9.915,22.182,12.311L331.181,411.77"/>
	<path fill="#797FAD" d="M337.077,411.896c3.506,2.647,6.84,5.77,10.002,9.359c-12.651-1.284-24.191-0.512-34.617,2.309
		c-12.736,1.881-22.011,3.632-27.825,5.258c-10.088,2.82-17.396,8.803-21.926,17.95c-2.308,4.702-4.059,11.71-5.257,21.027
		c-1.452,10.686-1.452,19.874,0,27.566c0.77,4.615,2.438,10.985,5.001,19.104c1.025,4.02,2.478,7.823,4.359,11.412l4.49,7.564
		c-4.788-2.223-8.55-6.666-11.287-13.335c-2.308-7.095-4.058-11.583-5.257-13.462c-5.553-8.551-8.974-19.274-10.256-32.183
		c-1.881-18.124,2.351-33.383,12.694-45.775c7.181-8.634,15.899-14.489,26.157-17.566c10.855-3.248,23.935-3.589,39.235-1.025
		L337.077,411.896"/>
	<path fill="#797FAD" d="M473.632,406.896c1.367-9.915,0.128-20.217-3.719-30.9c-0.256-11.11,2.267-20.431,7.563-27.95
		c5.302-7.524,12.91-12.48,22.824-14.873c-10,7.777-16.112,20.897-18.334,39.362l-2.18,19.874
		C478.591,399.075,476.54,403.906,473.632,406.896"/>
	<path fill="#797FAD" d="M453.375,519.729c13.677,7.777,24.79,16.798,33.338,27.056c-16.754-15.474-33.765-21.798-51.033-18.978
		c-15.813,2.648-26.112,11.241-30.9,25.771c0.601-15.3,6.841-25.771,18.719-31.415C432.817,517.72,442.774,516.907,453.375,519.729"
		/>
	<path fill="#797FAD" d="M353.107,604.227l0.384,2.308c-10.6,2.992-21.926,2.564-33.978-1.282l-23.594-9.488
		c-6.152-2.052-11.753-1.921-16.794,0.388c-5.044,3.333-8.804,5.556-11.284,6.667c-2.222,1.024-5.257,1.024-9.102,0l-12.182-2.438
		c-1.537-2.989-2.565-6.411-3.077-10.256c4.359-0.085,9.573,0.771,15.643,2.566l10.898,1.409c2.478-0.771,6.197-3.12,11.156-7.054
		l13.333-0.387c6.326,4.188,14.061,7.866,23.21,11.028C329.683,601.79,341.481,603.97,353.107,604.227"/>
	<path fill="#0D131A" d="M441.962,354.711c8.036,14.788,10.301,29.406,6.797,43.854c-3.591,14.787-12.097,24.488-25.518,29.104
		c14.872-18.55,11.628-40.646-9.744-66.29c-2.48-3.077-5.129-7.394-7.948-12.949l-6.797-13.72
		c-5.814-10.344-13.464-15.899-22.95-16.669c-10.943-0.94-23.125,0.514-36.543,4.359c-8.548-2.907-15.987-4.316-22.313-4.231
		c-8.889,0.171-17.181,3.12-24.873,8.849c-1.281-19.92,1.068-38.981,7.051-57.186l2.949-8.206
		c5.132-12.822,11.926-23.936,20.389-33.339c7.692,2.563,17.354,2.308,28.977-0.768c9.232-2.48,17.993-2.693,26.285-0.642
		c9.147,2.222,21.841,7.991,38.083,17.309c8.718,5.044,18.119,8.761,28.207,11.153c-8.122,12.225-12.822,26.672-14.105,43.341
		C428.371,318.424,432.389,337.102,441.962,354.711"/>
	<path fill="#8B92C7" d="M414.268,572.813c3.248-1.882,7.906-2.994,13.976-3.337c6.154,4.02,10.94,11.455,14.361,22.313
		c3.849,12.308,7.395,20.216,10.641,23.72c-8.119,2.736-15.727,6.41-22.822,11.028c-5.641,3.93-11.966,7.604-18.978,11.025
		c1.623-4.958,2.566-10.601,2.822-16.926c0.17-6.239-0.854-13.208-3.078-20.899c-2.564-7.948-4.23-13.634-5.001-17.053
		C407.984,578.156,410.676,574.865,414.268,572.813"/>
	<path fill="#797FAD" d="M225.784,381.508c-0.514,1.37-1.409,4.575-2.691,9.617c-1.796,4.873-4.49,8.462-8.079,10.771
		c-3.248,2.222-5.897,7.864-7.948,16.925c-2.137,9.917-2.995,21.926-2.566,36.031c0.085,2.989,0.898,9.229,2.435,18.722
		c1.37,8.377,1.924,14.188,1.668,17.437c-1.025-5.729-2.565-11.626-4.617-17.694l-5.769-15.129
		c-3.504-9.403-4.317-21.071-2.436-35.007c1.623-12.308,4.788-23.076,9.488-32.31c7.008-14.02,17.01-23.379,30.002-28.082
		c13.762-4.955,27.61-3.29,41.545,5.002l6.411,9.488c-4.018-2.907-8.763-5.386-14.233-7.438c-6.24-2.394-11.199-3.248-14.874-2.563
		c-5.385,0.938-11.284,3.035-17.695,6.279C230.101,376.808,226.554,379.457,225.784,381.508"/>
	<path fill="#797FAD" d="M683.527,356.633c2.138,4.361,3.761,9.32,4.874,14.876c-5.303-8.122-10.131-14.319-14.489-18.593
		c-3.418-3.248-6.326-5.172-8.722-5.77c-6.239-1.369-11.924-1.028-17.05,1.023c-3.336,1.284-9.062,4.746-17.184,10.389
		c7.692-18.721,21.327-24.063,40.902-16.026l0.385,0.125c2.991,2.565,5.643,5.343,7.95,8.337L683.527,356.633"/>
	<path fill="#797FAD" d="M706.094,308.424c7.096,2.137,14.361,4.959,21.798,8.463c-15.388-3.934-27.608-1.325-36.671,7.822
		c-7.178,7.179-10.854,15.941-11.026,26.285c-2.308-2.994-4.958-5.771-7.95-8.337l-0.385-0.256
		c-1.623-9.744,0.726-17.908,7.051-24.489C685.495,311.075,694.557,307.91,706.094,308.424"/>
	<path fill="#797FAD" d="M614.161,311.373c5.044-1.966,9.917-3.634,14.617-5.001c-4.955,3.589-9.53,7.737-13.72,12.438
		l-10.002,12.566c-1.793,2.478-3.416,7.479-4.871,15.001c-1.282,6.581-3.12,10.728-5.513,12.438l-22.313,14.103
		c-7.349,4.532-11.708,7.823-13.077,9.875c-3.163,4.87-4.401,10.639-3.718,17.309c0.17,1.537,0.938,3.505,2.309,5.896l3.205,6.285
		c-1.284-1.113-3.077-2.137-5.386-3.08l-6.539-2.819c-2.82-4.614-3.805-9.746-2.948-15.388c0.682-5.043,2.989-11.324,6.922-18.848
		c0.854-1.623,6.456-5.643,16.799-12.052c9.912-6.07,15.942-11.967,18.079-17.695c3.504-9.315,7.52-15.941,12.052-19.874
		L614.161,311.373"/>
	<path fill="#8B92C7" d="M532.742,427.924l-0.643-1.153h0.514L532.742,427.924"/>
	<path fill="#797FAD" d="M334.645,465.621c-3.592,2.137-6.115,3.163-7.567,3.077c-3.333-0.085-6.112,0.854-8.335,2.821l-6.024,3.59
		c-5.217,0.939-9.576,4.742-13.08,11.408c-2.563,4.876-4.444,10.73-5.641,17.567c-0.77,4.617-0.426,10.045,1.026,16.285
		l3.333,16.283c0.426,4.018,2.693,8.676,6.797,13.978c3.246,4.188,7.224,8.292,11.924,12.309l-2.563-0.896
		c-5.132-1.455-10.943-3.763-17.439-6.928c-0.258-2.394-1.282-5.212-3.078-8.462c-1.881-3.331-2.95-6.153-3.205-8.463l-4.104-17.31
		c-1.966-7.521-2.694-13.848-2.18-18.977c0.6-7.438,3.72-15.086,9.358-22.952c3.25-4.529,7.78-9.616,13.594-15.257
		c2.563-2.479,7.905-4.913,16.027-7.31c8.121-2.393,12.779-4.146,13.975-5.257c3.078-3.078,7.866-5.044,14.362-5.896
		c8.207-1.028,16.925,0.469,26.155,4.485l9.104,8.079l-30.258,2.052l-11.028,2.563C342.039,462.416,338.319,463.484,334.645,465.621
		"/>
	<path fill="#797FAD" d="M472.479,303.039c5.557,3.504,10.983,6.538,16.285,9.104c-14.873-0.429-24.748,2.393-29.621,8.462
		c-3.848,4.871-5.428,13.805-4.743,26.797l-0.77-1.153c-2.734-3.848-5.086-8.207-7.053-13.077
		c0.599-9.491,3.719-16.925,9.359-22.313C460.297,306.756,465.81,304.15,472.479,303.039"/>
	<path fill="#797FAD" d="M221.939,313.553c-6.155-0.256-12.054,1.495-17.695,5.257c-6.584,4.444-11.796,11.071-15.643,19.875
		c2.563-17.269,10.429-28.252,23.591-32.952c12.736-4.532,26.586-1.841,41.544,8.076c0.938,5.644,2.95,12.353,6.025,20.131
		c-8.462-6.667-15.214-11.452-20.258-14.362C232.922,315.817,227.065,313.809,221.939,313.553"/>
	<path fill="#797FAD" d="M363.237,502.549c8.204-7.438,16.965-12.778,26.285-16.029c10.77-3.761,20.685-4.187,29.747-1.279
		c-17.609,4.104-31.757,11.583-42.442,22.438c-6.752,6.666-11.111,14.276-13.078,22.824c-1.881,8.377-3.631,13.333-5.257,14.873
		c-11.625,11.281-15.856,25.001-12.693,41.158c-4.532-7.185-10.216-13.037-17.053-17.567c4.871-1.369,8.974-6.496,12.31-15.387
		l6.794-23.336C351.268,518.703,356.397,509.474,363.237,502.549"/>
	<path fill="#8B92C7" d="M518.38,544.091c3.08-2.818,5.302-6.023,6.669-9.616c1.452-3.678,1.838-7.395,1.154-11.155
		c-0.515-3.16-1.327-6.067-2.437-8.72c1.452-2.817,6.667-7.394,15.642-13.719c8.292-5.727,12.65-10.344,13.079-13.848
		c0.427-3.419-1.025-7.396-4.361-11.924c-3.331-4.617-8.377-9.488-15.129-14.617l28.337,6.282
		c9.917,2.479,16.968,5.813,21.156,10.003c5.641,5.641,7.606,12.775,5.898,21.412l4.102,4.101c1.027,2.052,3.506,5.516,7.438,10.389
		c2.99,3.675,4.53,6.794,4.615,9.36c0.256,4.529-0.213,8.463-1.409,11.793c-1.284,3.336-3.12,5.688-5.513,7.053
		c-4.532,2.736-16.243,4.874-35.135,6.411C541.545,549.007,526.843,547.938,518.38,544.091"/>
	<path fill="#797FAD" d="M557.746,325.221l9.231-0.642c-3.08,2.65-10.003,6.925-20.771,12.821
		c-10.088,5.388-16.368,9.49-18.85,12.31c-1.796,2.052-3.419,5.343-4.874,9.872c-1.281,4.188-1.921,7.738-1.921,10.645l-3.463,0.385
		c-2.308,1.367-3.248,6.154-2.822,14.358c0.085,1.198,3.206,6.456,9.36,15.771c5.984,9.063,8.977,17.738,8.977,26.029H532.1
		c-3.504-7.521-8.034-15.898-13.589-25.132l-12.696-20.258c-3.246-5.13-3.331-11.967-0.256-20.515
		c2.651-7.354,6.456-13.506,11.412-18.465c3.078-3.077,9.531-6.155,19.363-9.229C547.7,329.58,554.838,326.932,557.746,325.221"/>
	<path fill="#8B92C7" d="M441.451,309.705c-0.43-8.547,0.64-16.583,3.206-24.103l27.822,17.437
		c-6.669,1.111-12.182,3.717-16.541,7.82c-5.641,5.388-8.761,12.821-9.359,22.313C443.587,325.647,441.877,317.827,441.451,309.705"
		/>
	<path fill="#8B92C7" d="M459.143,320.605c4.874-6.069,14.748-8.891,29.621-8.462c15.044,7.349,29.787,11.582,44.233,12.691
		c9.317,0.599,17.566,0.727,24.748,0.386c-2.907,1.711-10.045,4.359-21.412,7.951c-9.832,3.074-16.285,6.152-19.363,9.229
		c-4.956,4.959-8.761,11.111-11.412,18.465c-3.075,8.548-2.99,15.385,0.256,20.515l12.696,20.258
		c5.555,9.232,10.085,17.609,13.589,25.131c-5.896-1.024-12.605-2.817-20.13-5.385c-8.033-2.735-14.231-4.532-18.59-5.385
		c-3.763-0.771-6.112,0.854-7.053,4.871c-1.111,4.532,0.982,10.002,6.282,16.413c6.496,7.865,14.874,13.933,25.133,18.209
		c11.625,7.863,16.239,16.411,13.847,25.644c-1.966,7.521-7.735,14.019-17.312,19.488c-9.57-9.403-23.205-14.746-40.899-16.027
		c-28.379-1.796-50.477-6.411-66.29-13.848c3.248-6.84,6.539-11.326,9.875-13.464l20.642-5.001
		c14.106-4.615,23.166-10.982,27.185-19.104c4.614-9.314,7.563-18.078,8.846-26.285c2.907-2.988,4.959-7.819,6.155-14.486
		l2.18-19.874c2.222-18.465,8.334-31.585,18.334-39.362c-9.915,2.393-17.521,7.349-22.824,14.873
		c-5.297,7.52-7.819,16.84-7.563,27.95c-3.075-8.462-8.247-17.993-15.514-28.593C453.715,334.41,455.295,325.477,459.143,320.605"/>
	<path fill="#8B92C7" d="M711.351,554.349c1.369,2.394,4.529,4.615,9.491,6.667l13.845,5.644
		c11.454,5.298,15.644,13.334,12.565,24.104c-2.563,9.147-11.796,14.918-27.695,17.313c-21.283,1.796-38.038,4.315-50.262,7.563
		c-18.807,5.13-33.25,11.668-43.335,19.618c-10.087,7.948-15.217,16.925-15.387,26.925c-0.686,34.279-12.523,54.409-35.519,60.395
		c-20.173,5.297-39.96,5.257-59.365-0.131c-17.354-4.87-37.739-15.171-61.161-30.899c-13.421-8.975-30.944-12.265-52.57-9.872
		c-21.966,4.188-36.413,6.109-43.338,5.77c-9.062-0.428-21.071-4.615-36.029-12.565c-17.351-9.145-31.071-14.874-41.158-17.182
		c-7.096-1.625-16.112-1.71-27.053-0.255l-32.955,6.153c-32.995,6.923-60.22,9.486-81.676,7.692
		c-17.095-1.366-32.994-3.719-47.697-7.053c-17.353-3.931-31.072-8.847-41.158-14.745c13.677,4.443,30.559,6.541,50.646,6.283
		c22.908-0.257,38.637-4.063,47.185-11.412c2.395-2.05,5.257-6.454,8.59-13.206c3.762-7.694,7.394-13.634,10.9-17.822
		c7.863-9.488,19.147-13.635,33.85-12.438l3.075-8.978c2.651-10.43,4.404-23.462,5.257-39.106l0.258-8.975
		c0.341-11.111,0.213-23.933-0.384-38.465l-1.668-14.361c0.256-3.248-0.298-9.06-1.668-17.437
		c-1.537-9.491-2.35-15.731-2.435-18.722c-0.429-14.105,0.429-26.114,2.566-36.031c2.051-9.061,4.7-14.703,7.948-16.925
		c3.589-2.309,6.283-5.896,8.079-10.771c1.282-5.042,2.177-8.247,2.691-9.617c0.77-2.051,4.317-4.7,10.642-7.95
		c6.411-3.244,12.31-5.343,17.695-6.279c3.675-0.686,8.633,0.17,14.874,2.563c5.47,2.052,10.215,4.529,14.233,7.438l3.848,4.742
		c2.904,3.079,7.178,6.413,12.822,10.003c3.674,2.308,9.102,5.343,16.283,9.104l6.411,8.975c-15.3-2.563-28.379-2.223-39.235,1.025
		c-10.258,3.077-18.977,8.934-26.157,17.566c-10.343,12.394-14.575,27.651-12.694,45.775c1.282,12.907,4.703,23.633,10.256,32.183
		c1.199,1.879,2.95,6.368,5.257,13.462c2.736,6.669,6.499,11.112,11.287,13.335c1.878,3.078,2.819,5.687,2.819,7.823l-8.849-6.926
		c-4.786-0.086-9.787,6.926-14.999,21.028c-4.703,12.821-7.053,23.122-7.053,30.899l0.256,3.848
		c0.512,3.845,1.54,7.267,3.077,10.256l12.182,2.438c3.845,1.024,6.88,1.024,9.102,0c2.48-1.111,6.24-3.334,11.284-6.667
		c5.041-2.309,10.642-2.438,16.794-0.388l23.594,9.488c12.052,3.848,23.378,4.274,33.978,1.282l0.386,3.336
		c0.511,9.313,1.194,16.623,2.051,21.926c1.367,7.521,3.419,13.461,6.155,17.82c-14.276,0.088-27.484-2.947-39.621-9.103
		c9.062,17.521,25.816,25.813,50.261,24.873c22.312-0.854,42.826-8.335,61.546-22.438c13.763-10.343,30.472-15.516,50.133-15.516
		c8.206,0,27.312,2.992,57.313,8.978c28.382,3.589,47.913,0.085,58.598-10.516c1.966-1.966,2.95-5.129,2.95-9.487l-0.77-12.693
		c-0.427-11.199,3.631-18.38,12.179-21.54c9.747-3.592,24.62-6.541,44.622-8.849c12.052-1.454,19.787-5.729,23.208-12.821
		c3.248-6.752,2.393-13.379-2.563-19.875c-4.188-5.299-10.729-10.087-19.618-14.361l9.36,0.771
		c18.892,1.196,30.985,5.214,36.285,12.052C708.787,542.852,710.583,547.938,711.351,554.349"/>
	<path fill="#797FAD" d="M601.083,568.836l28.207-2.563c12.054-0.598,21.415-2.309,28.081-5.127
		c5.813-2.396,9.572-6.498,11.283-12.311c1.708-5.559,0.855-10.045-2.564-13.464c-2.052-2.052-5.47-4.146-10.258-6.282l-11.282-5.13
		l15.771,2.308c8.89,4.274,15.431,9.063,19.618,14.361c4.956,6.496,5.813,13.123,2.563,19.875
		c-3.421,7.093-11.156,11.367-23.208,12.821c-20.002,2.308-34.875,5.257-44.622,8.849c-8.548,3.16-12.605,10.341-12.179,21.54
		l0.77,12.693c0,4.358-0.983,7.521-2.95,9.487c-10.685,10.601-30.215,14.104-58.598,10.516c-30.002-5.984-49.107-8.978-57.313-8.978
		c-19.661,0-36.371,5.173-50.133,15.516c-18.721,14.104-39.234,21.583-61.546,22.438c-24.444,0.94-41.199-7.352-50.261-24.873
		c12.137,6.154,25.345,9.189,39.621,9.103c4.444,6.925,11.025,10.688,19.744,11.284c6.922,0.427,13.037-1.495,18.334-5.77
		c5.132-4.188,8.892-10.045,11.283-17.566c7.011-3.422,13.336-7.097,18.978-11.025c7.096-4.618,14.703-8.292,22.822-11.028
		c5.131,5.557,11.883,8.676,20.261,9.36c8.036,0.6,15.043-1.156,21.028-5.257c2.818-1.883,5.172-4.743,7.053-8.592
		c7.434,0.769,14.703,2.138,21.795,4.104c5.473,1.452,9.832,2.949,13.078,4.487c12.225,5.641,24.961,6.196,38.211,1.668
		c14.188-4.788,19.746-13.294,16.667-25.52c-2.309-8.889-2.734-15.257-1.279-19.104
		C591.422,572.898,595.099,570.291,601.083,568.836"/>
	<path fill="#8B92C7" d="M629.29,566.272l-28.207,2.563c-5.984,1.455-9.661,4.063-11.026,7.822
		c-1.455,3.848-1.028,10.216,1.279,19.104c3.08,12.226-2.479,20.73-16.667,25.52c-13.25,4.528-25.987,3.973-38.211-1.668
		c-3.246-1.538-7.605-3.035-13.078-4.487c-7.093-1.967-14.361-3.336-21.795-4.104c1.881-4.188,2.99-9.275,3.331-15.261
		c0.258-11.024-2.049-21.582-6.922-31.67c3.421-1.367,19.917-2.65,49.492-3.845c28.978-1.199,48.255-3.933,57.828-8.207
		c5.129-2.222,9.702-5.428,13.721-9.616c4.614-4.788,6.453-9.019,5.513-12.696c-0.686-2.563-3.845-5.854-9.488-9.87
		c-6.411-4.615-10.343-7.991-11.795-10.128c11.113,6.409,24.873,11.152,41.286,14.229l11.282,5.13
		c4.788,2.137,8.207,4.23,10.258,6.282c3.421,3.419,4.272,7.905,2.564,13.464c-1.71,5.813-5.47,9.915-11.283,12.311
		C650.705,563.965,641.344,565.676,629.29,566.272"/>
	<path fill="#797FAD" d="M539.409,500.881c-8.976,6.325-14.189,10.9-15.642,13.719c-2.222-5.212-5.387-9.871-9.491-13.975
		c9.576-5.471,15.346-11.967,17.312-19.488c2.393-9.231-2.222-17.779-13.847-25.644l15.257,4.999
		c6.752,5.129,11.798,10,15.129,14.617c3.336,4.528,4.788,8.505,4.361,11.924C552.06,490.537,547.7,495.154,539.409,500.881"/>
	<path fill="#8B92C7" d="M706.094,308.424c-11.537-0.514-20.599,2.651-27.183,9.488c-6.325,6.581-8.674,14.745-7.051,24.489v0.131
		c-19.575-8.036-33.21-2.694-40.902,16.026c8.122-5.643,13.848-9.104,17.184-10.389c5.126-2.052,10.811-2.393,17.05-1.023
		c2.396,0.598,5.303,2.521,8.722,5.77c4.358,4.273,9.187,10.471,14.489,18.593c-1.113-5.556-2.736-10.515-4.874-14.876l-3.333-5.639
		c0.172-10.344,3.849-19.106,11.026-26.285c9.063-9.147,21.283-11.756,36.671-7.822c13.934,6.669,24.021,13.975,30.261,21.926
		c6.155,8.033,10.214,17.01,12.181,26.925c2.308,12.14-0.599,19.832-8.719,23.08c-9.232,3.591-19.317,2.777-30.262-2.437
		c-8.204-3.933-14.574-8.761-19.104-14.489c-1.025-1.366-2.778-2.479-5.257-3.334l-8.206-1.152
		c-1.023,6.925-0.641,12.222,1.153,15.897c1.54,3.248,5.256,7.353,11.156,12.312c6.325,5.47,11.156,10.64,14.489,15.513
		l-5.771-1.281l-10.258-4.23c-4.871-1.967-9.445-1.967-13.719,0c-4.956,2.308-8.502,4.916-10.639,7.821
		c-2.651,3.416-4.019,8.076-4.104,13.977c4.53-5.899,8.588-9.917,12.18-12.054c4.019-2.309,8.634-3.16,13.851-2.563
		c4.443,0.597,8.246,2.351,11.409,5.257c3.162,2.819,4.742,5.813,4.742,8.975c0,0.771,1.068,2.864,3.205,6.286l4.745,7.947
		l-1.152,5.386c-2.309,9.402-7.695,15.086-16.157,17.053c-7.605,1.796-14.657,0.259-21.153-4.615
		c-2.478-1.966-4.916-4.916-7.309-8.846l-5.899-10.39l-11.923,0.643l-4.104,3.718c-1.796,1.795-4.061,2.778-6.797,2.949l-10-1.537
		c-5.896-1.453-10.216-2.308-12.949-2.566l-9.36-8.462c-4.359-4.019-6.24-8.247-5.644-12.69c0.943-6.669,0.601-12.525-1.022-17.567
		c-2.479-7.437-7.609-12.395-15.387-14.873c4.443,6.069,6.754,12.437,6.925,19.104c0.085,3.589-0.686,8.292-2.309,14.104
		c-2.137,8.121,2.434,15.43,13.721,21.926l-0.772,0.388c-4.956,3.501-8.932,5.938-11.924,7.306
		c-5.212,2.396-11.367,2.822-18.462,1.282c-4.532-0.938-8.676-4.145-12.438-9.616c-2.563-3.59-5.215-8.762-7.95-15.516
		l-4.104-10.385c-0.853-2.222-2.177-4.146-3.973-5.769l-3.208-6.289c-1.37-2.393-2.138-4.359-2.309-5.896
		c-0.685-6.67,0.555-12.438,3.718-17.309c1.369-2.052,5.729-5.343,13.077-9.875l22.313-14.104c2.393-1.71,4.23-5.856,5.513-12.438
		c1.455-7.521,3.078-12.523,4.871-15.001l10.002-12.566c4.189-4.7,8.765-8.849,13.72-12.438c6.155-1.793,12.18-3.12,18.079-3.976
		C664.979,299.833,684.725,301.843,706.094,308.424"/>
	<path fill="#797FAD" d="M685.195,413.436c2.138-2.905,5.684-5.515,10.64-7.821c4.273-1.967,8.848-1.967,13.719,0l10.258,4.23
		l5.771,1.281c5.641,8.55,7.521,18.593,5.641,30.133l-4.745-7.948c-2.137-3.421-3.205-5.516-3.205-6.285
		c0-3.16-1.58-6.154-4.743-8.975c-3.162-2.907-6.965-4.66-11.408-5.257c-5.218-0.597-9.832,0.256-13.851,2.563
		c-3.592,2.137-7.649,6.153-12.18,12.054C681.178,421.513,682.545,416.852,685.195,413.436"/>
	<path fill="#8B92C7" d="M592.877,319.193l21.284-7.82l-14.104,11.154c-4.532,3.933-8.548,10.559-12.052,19.874
		c-2.137,5.729-8.167,11.625-18.079,17.695c-10.343,6.41-15.944,10.429-16.799,12.052c-3.934,7.522-6.24,13.805-6.922,18.848
		c-0.855,5.642,0.128,10.771,2.948,15.388l6.539,2.819c2.309,0.943,4.102,1.967,5.386,3.08c1.796,1.623,3.12,3.547,3.973,5.769
		l4.104,10.384l-36.54-1.665c0-8.291-2.992-16.968-8.978-26.029c-6.155-9.314-9.275-14.572-9.36-15.771
		c-0.426-8.204,0.515-12.991,2.822-14.358l3.463-0.385c0-2.905,0.641-6.455,1.921-10.645c1.455-4.529,3.078-7.82,4.874-9.872
		c2.48-2.819,8.762-6.922,18.85-12.31c10.77-5.896,17.691-10.171,20.771-12.821C575.695,323.641,584.329,321.845,592.877,319.193"/>
	<path fill="#797FAD" d="M618.775,421.899c-0.597,4.443,1.284,8.673,5.644,12.69l9.359,8.462c-5.558-0.426-9.917,0.086-13.076,1.54
		c-11.287-6.496-15.856-13.805-13.721-21.926c1.623-5.812,2.394-10.515,2.309-14.104c-0.17-6.67-2.48-13.035-6.925-19.104
		c7.777,2.479,12.908,7.438,15.387,14.873C619.375,409.374,619.719,415.23,618.775,421.899"/>
	<path fill="#797FAD" d="M497.994,564.093c-1.967-4.101-4.402-8.119-7.31-12.052l15.771-1.284c4.614-1.452,8.593-3.674,11.924-6.666
		c8.462,3.847,23.165,4.916,44.107,3.205c18.892-1.537,30.603-3.675,35.135-6.411c2.393-1.366,4.229-3.717,5.513-7.053
		c1.196-3.33,1.665-7.264,1.409-11.793c-0.085-2.566-1.625-5.686-4.615-9.36c-3.933-4.873-6.411-8.337-7.438-10.389
		c3.421,2.824,7.013,5.302,10.771,7.439c1.452,2.137,5.385,5.513,11.795,10.128c5.645,4.018,8.804,7.309,9.488,9.871
		c0.94,3.678-0.898,7.907-5.513,12.695c-4.019,4.188-8.591,7.396-13.721,9.616c-9.573,4.274-28.851,7.008-57.828,8.207
		C517.911,561.441,501.415,562.727,497.994,564.093"/>
	<path fill="#FFFFFF" d="M499.66,189.821c-6.067-5.813-11.623-16.925-16.667-33.338c-5.13-16.925-6.112-28.678-2.949-35.259
		c8.292-1.455,17.394,3.888,27.311,16.026c8.719,10.515,13.848,19.744,15.386,27.695c2.137,10.599,0.429,18.294-5.127,23.079
		C512.568,192.385,506.587,192.982,499.66,189.821"/>
	<path fill="#797FAD" d="M441.576,204.181c6.754-0.77,13.935-3.077,21.542-6.925c-5.215,6.584-12.223,11.241-21.028,13.978
		c-8.718,2.736-17.609,3.163-26.669,1.282c-7.438-1.452-13.378-6.11-17.823-13.976c-2.052-3.421-3.848-5.729-5.385-6.923
		c-2.565-1.796-6.112-2.438-10.642-1.926h-0.256c1.194-3.845,2.006-8.292,2.435-13.333c12.478-0.771,20.729,2.949,24.748,11.156
		l4.101,9.485c1.881,3.165,4.447,5.087,7.692,5.771L441.576,204.181"/>
	<path fill="#8B92C7" d="M444.014,255.339c7.266,1.711,14.487,2.694,21.67,2.95c-10.002,6.581-17.01,15.686-21.028,27.313
		c-2.565,7.52-3.634,15.556-3.205,24.103c0.427,8.122,2.137,15.942,5.127,23.467c1.966,4.87,4.318,9.229,7.053,13.077l0.77,1.153
		c7.267,10.6,12.438,20.131,15.514,28.593c3.847,10.685,5.086,20.985,3.719,30.9c-1.281,8.206-4.231,16.97-8.846,26.284
		c-4.019,8.122-13.078,14.489-27.185,19.104l-20.642,5.001c-3.336,2.138-6.626,6.624-9.875,13.464
		c-4.444-2.052-8.334-4.231-11.668-6.538l-8.334-6.411l-9.104-8.079l-15.385-14.488l-14.106-13.333
		c11.713,5.297,24.148,8.503,37.313,9.615c13.336,1.196,25.515,0.04,36.541-3.461l0.898-0.387
		c13.421-4.615,21.926-14.316,25.518-29.104c3.504-14.446,1.239-29.064-6.797-43.854c-9.573-17.609-13.592-36.287-12.054-56.031
		C431.191,282.011,435.893,267.563,444.014,255.339"/>
	<path fill="#797FAD" d="M172.062,596.789c10.256-3.845,21.284-5.471,33.078-4.873l-3.075,8.977
		c-14.703-1.196-25.987,2.949-33.85,12.438c-3.506,4.188-7.138,10.128-10.9,17.822c-3.333,6.752-6.195,11.155-8.59,13.206
		c-8.548,7.351-24.276,11.155-47.185,11.412c-20.087,0.258-36.97-1.84-50.646-6.283c-11.198-6.411-17.48-13.763-18.849-22.055
		c-0.854-5.3-0.341-10,1.539-14.104c1.624-3.421,4.403-6.712,8.334-9.872c3.42,13.845,14.36,23.25,32.824,28.206
		c17.267,4.53,36.244,4.23,56.93-0.897c5.983-1.536,12.992-7.008,21.028-16.41C161.162,604.355,167.615,598.499,172.062,596.789"/>
	<path fill="#797FAD" d="M89.231,424.975c1.709-6.239,4.572-11.498,8.59-15.771c2.393-2.479,6.539-5.684,12.438-9.616
		c-16.926,33.594-12.096,62.743,14.488,87.446c5.385,5.044,15.686,6.538,30.901,4.486c14.447-1.967,23.25-0.768,26.413,3.592
		c1.367,1.882,5.428,10.128,12.182,24.746c5.468,11.969,10.94,19.959,16.411,23.978l-0.258,8.975
		c-9.912-1.88-18.119-9.485-24.615-22.821l-7.053-14.617c-2.736-4.874-5.684-7.993-8.849-9.36
		c-3.248-1.451-10.258-0.982-21.028,1.412l-22.694,1.023c-4.616-1.879-9.873-6.537-15.771-13.977
		c-5.728-7.179-9.66-13.848-11.797-20c-4.359-8.121-7.437-14.662-9.231-19.617C86.196,446.048,86.154,436.088,89.231,424.975"/>
	<path fill="#8B92C7" d="M100.642,482.418c0-1.711-0.428-3.635-1.282-5.771c2.992,6.154,6.923,12.311,11.795,18.465
		c5.642,7.094,10.642,11.54,15.002,13.334l22.694-1.023c10.77-2.396,17.78-2.864,21.028-1.412c3.165,1.367,6.112,4.486,8.849,9.36
		l7.053,14.617c6.496,13.336,14.703,20.941,24.615,22.82c-0.853,15.646-2.606,28.679-5.257,39.107
		c-11.793-0.598-22.822,1.028-33.078,4.873c-4.447,1.71-10.9,7.566-19.363,17.566c-8.036,9.402-15.045,14.873-21.028,16.41
		c-20.686,5.129-39.663,5.429-56.93,0.897c-18.464-4.956-29.404-14.361-32.824-28.206l19.49-12.44
		c8.035-5.297,13.549-10.939,16.54-16.925c-7.949-5.726-13.677-12.265-17.181-19.616c-3.248-6.925-4.103-13.634-2.564-20.13
		c2.222-9.744,9.531-18.122,21.925-25.132l12.694-8.078c3.933-3.331,6.326-7.31,7.181-11.924L100.642,482.418"/>
	<path fill="#797FAD" d="M238.478,260.854c6.582-0.344,16.626-2.907,30.133-7.692c12.48-2.736,23.634,0.085,33.463,8.463
		l-2.949,8.206c-9.657-7.269-21.199-8.292-34.618-3.08c-14.276,7.354-24.575,11.327-30.9,11.927
		c-12.566,1.281-23.336-5.431-32.313-20.131c-8.377-13.762-12.222-28.851-11.54-45.262l7.82-12.824
		c-0.341,13.851,3.206,27.144,10.645,39.88C216.511,254.614,226.597,261.454,238.478,260.854"/>
	<path fill="#FFFFFF" d="M348.62,112.12c12.137,5.044,21.412,14.018,27.823,26.927c5.726,11.623,8.164,24.063,7.309,37.312
		c-0.429,5.041-1.241,9.488-2.435,13.333c-10.002,13.336-23.808,16.8-41.415,10.389c-11.028-3.933-20.559-9.875-28.595-17.823
		c-3.674-3.506-5.084-10.258-4.231-20.261c1.455-14.787,5.899-26.626,13.335-35.515C327.762,117.59,337.165,112.802,348.62,112.12"
		/>
	<path fill="#B390B1" d="M301.948,321.373c6.153-2.563,12.691-3.589,19.616-3.074c5.129,0.426,11.028,1.793,17.695,4.101
		c13.418-3.846,25.601-5.3,36.543-4.359c9.486,0.77,17.136,6.325,22.95,16.669l6.797,13.72c2.819,5.556,5.468,9.872,7.948,12.949
		c19.404,23.165,24.021,43.296,13.848,60.392c-14.018-24.617-31.756-45.688-53.21-63.21
		C351.74,340.35,327.677,327.955,301.948,321.373"/>
	<path fill="#797FAD" d="M474.146,397.922l-0.515,8.975c-1.281,8.207-4.231,16.97-8.846,26.284
		c-4.019,8.122-13.078,14.489-27.185,19.104l-20.642,5.001c-3.336,2.138-6.626,6.624-9.875,13.464
		c-4.444-2.052-8.334-4.23-11.668-6.538l-8.334-6.411l-9.104-8.079l-9.486-7.821c19.659,8.206,39.832,8.763,60.519,1.668
		C451.919,435.704,466.963,420.487,474.146,397.922"/>
	<path fill="#797FAD" d="M103.591,603.072c-14.019,0.085-28.122-2.905-42.312-8.976l8.205-8.593l7.309-9.359
		c10.856,6.925,25.473,11.713,43.851,14.36l38.978,1.924C137.398,599.439,118.722,602.986,103.591,603.072"/>
	<path fill="#797FAD" d="M621.086,377.405c4.443,2.478,7.606,4.788,9.488,6.925c1.451,1.623,4.699,7.05,9.743,16.285
		c6.669,8.204,15.559,11.668,26.669,10.384c17.954-2.052,25.559-16.027,22.824-41.926c1.455-1.199,4.444-1.455,8.975-0.772
		c-0.769,5.388-0.641,9.704,0.386,12.952c0.938,3.077,3.035,6.197,6.28,9.36l7.309,7.178l7.567,6.669l5.257,6.667l-5.771-1.281
		l-10.258-4.23c-4.871-1.967-9.445-1.967-13.719,0c-4.104,1.796-7.221,3.845-9.36,6.154c-3.76,1.195-7.648,3.247-11.667,6.154
		l-10.384,7.82c-2.907,1.967-6.582,2.864-11.026,2.691l-11.544-1.537l-11.667-1.154l-11.281-0.256
		c-0.257-1.025-0.302-2.223-0.131-3.589c0.943-6.669,0.601-12.525-1.022-17.567c-2.479-7.437-7.609-12.395-15.387-14.873
		c4.443,6.069,6.754,12.437,6.925,19.104c0.085,3.589-0.686,8.292-2.309,14.104l-0.386,2.052c-9.06-1.281-15.771-5.042-20.13-11.281
		c-4.445-6.41-2.523-14.873,5.769-25.388c7.865-10.088,14.788-14.788,20.772-14.105
		C614.547,374.199,617.237,375.354,621.086,377.405"/>
	<path fill="#63688F" d="M719.813,409.846l5.771,1.281l2.563,4.617c-14.272-6.925-28.164-8.249-41.672-3.977
		c2.141-2.31,5.257-4.357,9.36-6.153c4.273-1.967,8.848-1.967,13.719,0L719.813,409.846"/>
	<path fill="#63688F" d="M618.775,421.899c-0.171,1.366-0.125,2.563,0.13,3.589l-12.31-0.771l0.386-2.052
		c1.623-5.812,2.394-10.515,2.309-14.104c-0.17-6.67-2.48-13.035-6.925-19.104c7.777,2.479,12.908,7.438,15.387,14.873
		C619.375,409.374,619.719,415.23,618.775,421.899"/>
	<path fill="#797FAD" d="M416.318,572.556c-5.044,2.48-8.42,5.856-10.13,10.13c-2.222-9.146-1.323-14.918,2.691-17.311
		c3.506-2.052,10.173-0.726,20.005,3.975C424.782,569.35,420.593,570.418,416.318,572.556"/>
	<path fill="#797FAD" d="M456.067,520.371c17.438,9.146,30.302,14.703,38.594,16.666c10.6,2.48,20.685,1.327,30.261-3.461
		c0,5.984-4.444,11.242-13.336,15.771c-8.119,4.188-13.934,5.599-17.439,4.231l-19.744-18.849
		C468.674,529.774,462.563,524.986,456.067,520.371"/>
	<path fill="#797FAD" d="M239.503,503.063c1.026,3.159,4.231,8.463,9.619,15.896c5.896,8.292,10.469,13.208,13.72,14.748
		c-2.824,1.193-6.286,6.666-10.389,16.41c-4.529,10.854-7.564,22.097-9.102,33.723c-2.566-3.334-3.549-13.592-2.95-30.771
		C241.171,530.416,240.871,513.747,239.503,503.063"/>
	<path fill="#797FAD" d="M437.73,574.479c6.584,4.959,11.625,11.284,15.132,18.977c5.554,12.225,14.958,18.335,28.207,18.335
		c12.651,0,20.857-4.828,24.62-14.487l-0.13,3.975c-0.341,3.165-1.196,6.153-2.563,8.977c-4.359,8.891-12.907,14.019-25.645,15.387
		c-8.633,0.938-16.071-1.323-22.313-6.797c-5.126-4.443-8.633-10.128-10.515-17.053c-4.699-17.354-9.915-28.166-15.641-32.439
		L437.73,574.479"/>
	<path fill="#797FAD" d="M416.063,623.844l-1.284,6.025c-1.366,4.787-3.074,9.189-5.126,13.207
		c-6.755,12.822-16.285,19.104-28.592,18.849c-12.31-0.258-20.687-8.548-25.132-24.873c-1.369-5.132-2.267-10.729-2.693-16.8
		l-0.256-7.563c5.641,18.807,16.069,28.553,31.286,29.234c6.24,0.256,12.308-1.282,18.204-4.615
		C408.283,634.058,412.813,629.57,416.063,623.844"/>
	<path fill="#797FAD" d="M752.896,391.255c-9.491,0.427-18.209-1.54-26.157-5.898c-5.556-3.077-9.658-6.496-12.311-10.259
		c-1.708-2.393-4.572-4.273-8.59-5.641l-16.027-0.384l-4.871-11.668l7.69-1.54l15.131-0.771c4.016,0.43,9.53,2.351,16.541,5.771
		l17.948,8.719c14.36,6.069,24.021,4.23,28.979-5.513l1.154,4.103c0.77,3.334,0.94,6.366,0.511,9.104
		C771.616,386.168,764.946,390.826,752.896,391.255"/>
	<path fill="#797FAD" d="M685.708,445.363c4.188,2.478,8.419,4.485,12.692,6.025c13.507,4.786,24.446,3.676,32.823-3.336
		c-1.024,2.651-2.864,5.301-5.513,7.951c-5.3,5.385-12.009,8.332-20.13,8.847c-8.121,0.43-14.703-3.247-19.747-11.025l-5.257-11.796
		L685.708,445.363"/>
	<path fill="#797FAD" d="M638.78,390.74c5.557,2.394,10.897,4.062,16.027,4.999c16.499,2.824,28.207-2.349,35.131-15.514
		l0.128,4.359c-0.085,3.589-0.682,6.925-1.796,10c-3.504,9.917-11.28,15.687-23.335,17.312
		c-13.504,1.796-24.447-6.368-32.824-24.489L638.78,390.74"/>
	<path fill="#797FAD" d="M708.531,568.196c-2.736-2.138-5.13-5.728-7.182-10.771l-6.026-13.205
		c-6.581-10.687-20.216-16.799-40.902-18.337l21.159,0.641c14.958,1.369,24.443,4.36,28.462,8.977
		c3.336,3.848,5.257,8.505,5.771,13.979c0.428,4.357,1.965,7.135,4.615,8.331l20.133,7.82c9.4,4.787,14.572,10.603,15.514,17.438
		c1.195,8.121-2.095,14.403-9.874,18.849c-7.778,4.529-21.284,7.865-40.517,10.002c-21.199,2.479-38.379,6.366-51.542,11.668
		c-15.561,6.326-26.842,15.087-33.85,26.285c-1.54,2.394-2.481,7.179-2.824,14.359l-1.666,20.514
		c-3.078,18.551-13.208,31.417-30.389,38.596c-20.6,8.548-42.995,8.85-67.188,0.898c-12.393-4.02-25.898-10.771-40.516-20.259
		l-24.104-15.517c-12.054-5.896-24.535-7.908-37.44-6.025c-18.977,3.762-32.739,5.897-41.287,6.409
		c-14.274,0.943-27.481-1.921-39.621-8.588c-18.55-10.258-31.713-16.714-39.49-19.361c-13.762-4.615-27.098-5.087-40.005-1.409
		c-41.201,11.622-81.462,15.641-120.783,12.051c-31.03-2.821-56.117-9.402-75.266-19.746c7.864,2.479,17.395,4.273,28.594,5.389
		c11.795,1.107,22.951,1.192,33.464,0.256c21.37,3.503,43.765,3.418,67.186-0.256l71.035-10.39
		c15.47-1.367,29.917,0.13,43.338,4.489c4.188,1.367,11.966,4.401,23.335,9.104c10.6,4.273,19.062,7.35,25.387,9.229
		c20.943,6.24,39.834,6.07,56.674-0.512c8.893-3.421,19.491-3.034,31.798,1.153c6.581,2.223,18.422,7.735,35.519,16.538
		c16.154,8.378,29.188,14.063,39.106,17.057c15.214,4.528,29.491,5.343,42.824,2.436c22.909-5.129,37.141-15.047,42.698-29.746
		l5.127-19.359c2.052-7.951,4.916-14.362,8.593-19.235c8.377-11.113,21.412-20.301,39.107-27.566
		c13.762-5.644,29.404-9.83,46.927-12.565c16.668-2.479,25.386-6.709,26.157-12.693
		C721.183,580.677,717.164,575.036,708.531,568.196"/>
	<path fill="#63688F" d="M689.169,410.999l-6.024,2.052c2.138-3.248,6.195-6.326,12.18-9.229c3.421-1.54,6.882-1.966,10.386-1.284
		c1.966,0.427,4.702,1.495,8.204,3.206l3.208,1.796l2.82,1.025l4.999,1.025l2.436,4.104c-1.793-1.369-4.313-2.223-7.564-2.565
		c-1.881-0.171-4.188-1.024-6.922-2.563c-3.165-1.537-5.644-2.521-7.438-2.949c-3.075-0.601-6.066-0.256-8.974,1.024
		C693.059,408.265,690.624,409.717,689.169,410.999"/>
	<path fill="#797FAD" d="M683.145,413.051l6.024-2.052c-3.674,3.163-5.854,7.309-6.539,12.438c3.933-4.702,7.652-7.948,11.154-9.744
		c3.933-2.053,8.422-2.778,13.463-2.183c4.703,0.688,8.719,2.523,12.054,5.517c3.419,3.077,5.127,6.41,5.127,9.999l3.848,6.667
		l2.949,5.001l-1.54,2.95l-3.589-6.024l-3.333-5.002c-0.939-1.454-1.41-2.479-1.41-3.077c0-3.163-1.024-5.899-3.077-8.206
		c-2.564-2.822-6.324-4.573-11.283-5.258c-4.785-0.601-8.975,0.086-12.565,2.052c-3.589,2.052-7.692,6.069-12.31,12.052
		c-0.683,0.855-1.239,0.983-1.666,0.388c-0.427-0.513-0.643-1.325-0.643-2.438C679.894,420.66,681.007,416.299,683.145,413.051"/>
	<path fill="#797FAD" d="M238.222,140.326c0-0.256,0.426-0.597,1.282-1.023l1.156-0.13c0.17,5.217,1.324,10.218,3.461,15.003
		c2.051,4.7,4.828,8.591,8.332,11.668c5.814,5.042,12.867,7.179,21.159,6.411c3.933-0.427,7.008-1.154,9.23-2.18l4.359-3.077
		c1.966-1.882,3.975-3.248,6.027-4.104c3.248-1.196,7.948-1.924,14.104-2.18l0.13,1.281l-0.642,1.284
		c-5.47,0.256-9.616,0.938-12.438,2.052c-1.708,0.598-3.504,1.751-5.385,3.462l-5.257,4.358c-2.819,1.796-6.326,2.864-10.514,3.206
		c-7.951,0.853-15.601-1.882-22.949-8.207c-3.592-3.163-6.411-7.224-8.462-12.18C239.762,151.184,238.563,145.97,238.222,140.326"/>
	<path fill="#797FAD" d="M241.171,180.331c7.607,7.609,16.027,10.9,25.257,9.874c3.592-0.429,6.797-1.366,9.619-2.821l6.667-4.615
		c3.163-2.478,5.726-4.188,7.692-5.129c3.421-1.623,7.354-2.565,11.798-2.821c2.99-0.086,4.274,0.256,3.848,1.028
		c-0.344,0.853-2.052,1.409-5.132,1.665c-3.759,0.256-7.053,1.111-9.872,2.563c-1.795,0.94-4.061,2.523-6.797,4.745l-7.178,5.385
		c-3.163,2.052-6.626,3.291-10.386,3.72c-9.574,1.108-18.633-2.608-27.183-11.156c-3.93-3.762-7.136-8.249-9.616-13.464
		c-2.566-5.126-3.674-9.445-3.333-12.949c0.171-1.796,0.683-2.949,1.54-3.464c0.768-0.597,1.069,0,0.898,1.796
		c-0.258,2.907,0.682,6.84,2.819,11.799C234.289,171.954,237.409,176.571,241.171,180.331"/>
	<path fill="#797FAD" d="M441.707,202.899c6.411-0.771,13.378-3.035,20.897-6.797c1.455-0.768,2.012-0.64,1.667,0.386l-1.793,2.949
		c-5.217,6.496-12.054,11.026-20.517,13.59l-26.797,0.772c-5.389-1.114-9.616-3.12-12.696-6.03c-1.878-1.793-3.76-4.572-5.638-8.332
		c-1.71-3.335-3.25-5.513-4.618-6.541c-2.222-1.623-5.47-2.262-9.744-1.921c-1.199,0.085-1.838-0.301-1.923-1.154
		c-0.085-0.771,0.469-1.238,1.668-1.411c5.126-0.427,8.974,0.213,11.537,1.923c1.796,1.111,3.546,3.334,5.257,6.667
		c2.137,4.104,3.89,6.883,5.257,8.337c2.822,3.075,6.626,5.084,11.412,6.024c7.695,1.54,15.345,1.37,22.952-0.512
		c7.437-1.881,13.762-5.131,18.977-9.746c-6.411,2.65-12.565,4.188-18.463,4.615c-5.898,0.514-12.267-0.041-19.105-1.666
		c-2.99-0.768-5.429-2.35-7.31-4.745c-1.195-1.623-2.478-4.144-3.847-7.564c-1.879-4.53-3.76-7.692-5.639-9.486
		c-3.08-2.909-7.567-4.404-13.463-4.489c-2.907-0.085-4.53-0.512-4.874-1.281c-0.256-0.771,1.068-1.196,3.976-1.282
		c7.093-0.085,12.395,1.239,15.898,3.973c2.309,1.796,4.402,5.002,6.283,9.616l3.461,7.823c1.625,2.736,3.633,4.359,6.027,4.873
		C428.158,203.285,435.21,203.754,441.707,202.899"/>
	<path fill="#797FAD" d="M278.613,253.546c-4.876-0.085-11.841,1.324-20.903,4.231l-9.486,3.461l-9.616,2.182
		c-8.207,0.427-15.816-2.823-22.824-9.746c-5.899-5.899-10.73-13.976-14.49-24.233c-3.333-9.315-4.958-17.951-4.873-25.899
		c1.881-2.565,2.821-3.634,2.821-3.205c-0.341,7.52,1.111,16.069,4.359,25.643c3.504,10.6,8.164,18.807,13.978,24.618
		c6.411,6.41,13.376,9.402,20.898,8.977c4.018-0.171,10.173-1.583,18.465-4.234c9.659-3.074,16.84-4.614,21.54-4.614
		c8.292-0.086,15.987,2.949,23.08,9.104c0.256,0.17,0.171,0.682-0.256,1.54l-1.025,0.895
		C293.611,256.453,286.388,253.546,278.613,253.546"/>
	<path fill="#797FAD" d="M233.477,277.395c2.909-0.256,6.285-1.153,10.13-2.693l10.514-4.745c9.488-4.615,16.712-7.31,21.668-8.076
		c8.377-1.455,15.816,0.426,22.313,5.641l0.384,1.796l-0.514,0.897c-5.982-4.788-13.078-6.624-21.284-5.516
		c-5.468,0.771-12.606,3.251-21.412,7.439l-11.153,5.769c-4.189,2.052-7.78,3.205-10.77,3.461
		c-8.548,0.941-16.584-2.179-24.108-9.36c-6.581-6.24-12.051-15.171-16.411-26.797c-4.018-10.685-5.856-19.917-5.513-27.694
		c0.17-2.479,0.639-4.061,1.41-4.745c0.77-0.683,1.068,0.256,0.897,2.821c-0.343,7.266,1.583,16.285,5.771,27.056
		c4.444,11.537,9.787,20.258,16.027,26.154C218.433,275.472,225.784,278.334,233.477,277.395"/>
	<path fill="#797FAD" d="M252.839,311.629l1.153,2.308c0.341,1.196,0.341,1.711,0,1.538c-7.521-5.127-15.089-8.378-22.693-9.742
		c-7.61-1.369-14.532-0.685-20.772,2.052c-8.718,3.845-14.873,11.196-18.465,22.052c4.104-6.24,9.02-10.898,14.745-13.976
		c4.959-2.563,10.045-3.762,15.257-3.592c5.046,0.259,10.772,2.137,17.183,5.644c4.958,2.733,10.943,6.882,17.951,12.438
		c1.111,0.855,2.222,2.776,3.333,5.769c-8.718-6.925-15.856-11.966-21.412-15.129c-6.411-3.504-12.139-5.385-17.181-5.641
		c-13.935-0.514-24.233,6.88-30.9,22.182c-0.602,1.282-1.284,1.623-2.051,1.023c-0.858-0.597-1.154-1.622-0.898-3.074
		c2.393-15.987,9.571-26.542,21.54-31.673c5.984-2.648,12.864-3.206,20.642-1.666C237.454,303.596,244.974,306.756,252.839,311.629"
		/>
	<path fill="#797FAD" d="M227.321,368.431c-10.17,6.582-18.204,17.225-24.103,31.928c-5.899,14.53-7.991,28.976-6.283,43.338
		c0.855,7.521,0.855,10.984,0,10.386c-0.77-0.6-1.583-4.617-2.436-12.052c-1.71-14.873,0.426-29.791,6.411-44.75
		c5.984-15.044,14.274-25.984,24.873-32.824c13.848-8.977,30.005-8.803,48.467,0.515c0.941,0.513,1.966,2.053,3.078,4.615
		c-8.633-5.215-17.266-7.906-25.899-8.079C242.882,361.335,234.846,363.646,227.321,368.431"/>
	<path fill="#797FAD" d="M226.94,383.176l-0.897,3.334l-2.308,8.462c-1.37,3.334-3.592,5.984-6.669,7.951
		c-4.532,2.989-7.693,9.957-9.488,20.897c-1.967,11.284-2.095,25.004-0.387,41.158c0.943,8.463,0.943,12.438,0,11.924
		c-0.853-0.598-1.708-5.126-2.563-13.589c-1.796-17.097-1.836-30.985-0.128-41.674c1.708-10.514,5.001-17.437,9.875-20.77
		c2.734-1.881,4.913-4.489,6.536-7.823l2.566-8.334l1.154-3.717c0.94-2.395,4.657-5.303,11.153-8.719
		c6.669-3.506,12.782-5.729,18.337-6.669c3.248-0.601,7.565,0.043,12.95,1.924c4.444,1.625,8.934,3.802,13.463,6.538
		c1.455,0.854,2.734,2.778,3.848,5.771c-3.25-2.82-8.036-5.342-14.361-7.563c-6.667-2.309-11.924-3.12-15.771-2.438
		c-5.299,0.94-11.071,2.992-17.309,6.154C230.956,379.073,227.623,381.466,226.94,383.176"/>
	<path fill="#797FAD" d="M106.028,406.512c2.735-5.983,4.701-8.806,5.898-8.462c1.197,0.341,0.384,3.504-2.437,9.488
		c-7.864,16.754-9.146,32.738-3.846,47.955c3.676,10.6,10.342,20.386,20.002,29.36c3.418,3.162,8.12,4.916,14.103,5.257
		l16.668-1.281l15.646-0.515c5.042,0.771,8.718,2.778,11.026,6.026c2.222,2.992,5.212,8.847,8.974,17.566l8.207,16.155
		c3.333,5.471,6.882,9.658,10.642,12.564l0.384,2.819l-0.384,2.183c-4.274-2.822-8.334-7.523-12.182-14.105
		c-2.307-3.934-5.297-10.129-8.974-18.591c-3.762-8.548-6.667-14.232-8.718-17.056c-1.881-2.648-5.171-4.144-9.872-4.484
		l-14.362,1.154l-17.567,1.409c-6.411-0.427-11.539-2.438-15.386-6.027c-10.086-9.487-17.138-19.831-21.156-31.027
		C96.795,440.66,97.907,423.865,106.028,406.512"/>
	<path fill="#797FAD" d="M97.821,473.313c-0.855-4.273,0.171-3.248,3.078,3.076c3.248,7.012,6.966,13.163,11.155,18.466
		c4.958,6.325,9.831,10.43,14.618,12.308l10.514,0.897l12.181-2.18l11.54-2.052l9.485,0.896c3.08,1.367,5.814,3.934,8.207,7.692
		c1.54,2.48,3.464,6.414,5.771,11.796c3.163,7.27,6.283,12.821,9.36,16.669c4.444,5.474,9.744,8.936,15.899,10.388
		c0.341,0.17,0.386,0.64,0.128,1.411l-0.898,1.023c-8.718-2.052-14.873-5.471-18.462-10.259c-1.028-1.279-3.847-7.222-8.462-17.82
		l-5.387-11.028c-2.222-3.589-4.658-5.983-7.309-7.178l-8.462-0.259l-10.896,2.436l-12.824,2.311l-11.411-1.025
		c-5.557-2.308-11.155-7.224-16.797-14.745C103.121,488.445,99.445,480.836,97.821,473.313"/>
	<path fill="#797FAD" d="M191.934,589.994l14.49,0.643l0.511,1.279l-0.639,1.283c-11.796-0.94-23.038,0.683-33.722,4.871
		c-2.907,1.113-5.941,3.166-9.104,6.154c-1.796,1.711-4.657,4.831-8.59,9.36l-10.514,11.924c-4.273,4.104-8.42,6.666-12.438,7.694
		c-14.189,3.59-27.995,4.871-41.416,3.848c-13.505-0.941-24.619-4.104-33.337-9.49c-8.633-5.386-14.147-13.504-16.54-24.361
		l1.025-0.771l1.41,0.259c1.966,8.719,7.266,15.729,15.899,21.025c8.377,5.217,19.148,8.337,32.313,9.36
		c13.078,1.027,26.413-0.171,40.003-3.589c3.848-0.94,7.736-3.163,11.668-6.667l10.001-10.898l8.974-10.644
		c3.506-3.847,6.754-6.326,9.747-7.436C177.831,591.532,184.583,590.25,191.934,589.994"/>
	<path fill="#797FAD" d="M351.183,602.943c0.341,0,0.682,0.47,1.026,1.412c0.256,0.938,0.213,1.409-0.128,1.409
		c-10.6-0.427-20.9-2.182-30.9-5.257c-10.173-3.078-19.317-7.31-27.439-12.695c-2.736-1.795-5.513-2.264-8.337-1.41
		c-1.708,0.515-4.188,2.01-7.434,4.489l-7.564,4.359l-5.513,0.255l-6.029-1.54c-5.468-1.708-10.341-2.563-14.618-2.563
		c0.173-1.282-0.085-2.352-0.767-3.206l8.974,1.154l7.184,2.18c4.615,1.452,7.948,1.881,10,1.281l3.333-2.178l3.461-3.08
		c3.677-2.647,6.496-4.229,8.462-4.742c3.421-1.111,6.837-0.555,10.258,1.668C312.758,596.02,331.439,602.174,351.183,602.943"/>
	<path fill="#797FAD" d="M353.235,605.123c0.341-0.17,0.557,0.302,0.642,1.41c0,1.113-0.171,1.71-0.514,1.796
		c-9.062,2.647-18.422,2.864-28.079,0.642c-5.388-1.198-12.566-3.848-21.542-7.949l-8.334-3.334
		c-4.786-1.622-9.06-2.01-12.822-1.153c-2.478,0.6-5.47,2.009-8.974,4.23l-5.131,3.848l-5.896,0.897l-6.283-1.283
		c-3.933-1.196-7.351-1.837-10.258-1.922l-1.154-3.206c3.166,0,7.181,0.684,12.054,2.053l5.641,1.153l4.743-0.643l4.873-2.949
		c4.018-2.647,7.266-4.273,9.744-4.871c4.359-1.198,9.147-0.942,14.362,0.769l8.462,3.461c8.633,3.933,15.771,6.541,21.415,7.823
		L353.235,605.123"/>
	<path fill="#797FAD" d="M450.811,517.936c2.138,0.428,3.547,1.194,4.229,2.309c0.771,1.111,0.429,1.452-1.023,1.022
		c-4.444-1.363-9.234-1.921-14.362-1.665c-5.898,0.257-11.198,1.539-15.898,3.848c-8.891,4.273-14.447,11.668-16.669,22.183
		c2.736-4.615,6.283-8.548,10.642-11.799c4.444-3.245,9.36-5.513,14.745-6.794l23.851,0.77c8.292,2.309,16.367,6.539,24.233,12.693
		c2.137,1.623,5.086,5.471,8.846,11.54c-8.721-8.803-18.078-15.089-28.078-18.849c-10.003-3.761-19.448-4.572-28.338-2.436
		c-6.582,1.537-12.182,4.229-16.799,8.076c-4.786,4.104-8.162,9.146-10.128,15.129l-1.54,0.897
		c-0.682-0.171-1.022-0.598-1.022-1.281c0.341-8.89,2.563-16.542,6.667-22.952c3.418-5.212,7.563-9.017,12.435-11.412
		C429.438,515.97,438.842,515.54,450.811,517.936"/>
	<path fill="#797FAD" d="M330.667,569.608l-1.921-2.053c3.675-1.198,6.837-5.001,9.488-11.411c1.367-3.165,3.248-9.317,5.641-18.466
		l2.179-7.819c3.76-12.736,8.806-22.313,15.132-28.724c7.948-7.35,16.581-12.69,25.899-16.026
		c11.026-3.934,21.329-4.314,30.899-1.154l2.053,1.284c0.514,0.683,0.341,1.108-0.513,1.278
		c-10.173,2.312-18.977,5.771-26.414,10.39c-4.617,2.903-9.317,6.795-14.103,11.668c-8.121,8.034-13.037,16.755-14.748,26.155
		l-1.281,6.666c-0.685,2.311-1.708,4.104-3.078,5.388c-12.736,12.225-16.624,27.053-11.668,44.492l-1.538-3.206l-2.435-3.333
		c-0.514-2.907-0.772-5.729-0.772-8.462c0-12.056,4.745-22.654,14.233-31.799c1.796-1.711,3.12-5.13,3.976-10.259
		c1.026-5.215,2.179-9.274,3.461-12.18c2.393-5.388,5.984-10.474,10.77-15.26c9.747-9.917,22.483-17.054,38.208-21.414
		c-8.548-1.623-17.606-0.469-27.181,3.464c-8.207,3.333-15.814,8.204-22.821,14.617c-6.584,6.837-11.628,15.898-15.132,27.181
		l-2.052,7.695c-2.393,8.718-4.401,14.958-6.027,18.721C338.021,563.709,334.599,567.897,330.667,569.608"/>
	<path fill="#797FAD" d="M339.259,413.692c1.282,1.195,1.495,1.666,0.642,1.409c-19.664-5.3-36.074-6.798-49.24-4.486
		c-13.077,2.308-23.89,8.59-32.438,18.849c-10.514,12.565-14.66,27.865-12.438,45.901c1.455,12.396,4.786,22.609,10.002,30.645
		l3.075,7.31c1.369,4.188,2.651,7.394,3.848,9.616c1.966,3.589,4.404,6.367,7.309,8.334l2.052,2.949l0.897,2.437
		c-7.266-3.76-12.779-10.813-16.539-21.156l-2.824-8.076c-5.553-8.633-9.23-19.231-11.025-31.799
		c-2.649-18.806,1.495-34.747,12.438-47.827c8.548-10.171,19.36-16.581,32.438-19.231c13.165-2.651,29.107-1.71,47.828,2.82
		C336.651,411.727,337.975,412.494,339.259,413.692"/>
	<path fill="#797FAD" d="M345.67,419.848c1.281,0.085,2.265,0.598,2.949,1.537c0.768,0.941,0.64,1.324-0.386,1.154
		c-11.881-1.196-23.677-0.256-35.39,2.821l-14.359,2.693c-9.147,1.364-15.558,2.861-19.232,4.484
		c-6.326,2.821-11.242,7.737-14.746,14.748c-2.821,5.641-4.745,12.521-5.769,20.642c-1.199,8.805-1.327,16.541-0.386,23.208
		c0.512,3.418,1.838,8.675,3.976,15.771l2.051,7.309c1.623,6.411,3.89,11.924,6.794,16.542l3.206,5.896
		c0.855,2.051,1.199,4.061,1.026,6.025l-1.41,0.388c-0.855-0.088-1.241-0.302-1.154-0.644c0.171-1.625-0.128-3.29-0.897-5.001
		l-2.95-5.257c-3.674-5.898-6.24-11.668-7.692-17.312l-2.052-7.31c-2.137-7.349-3.461-12.69-3.976-16.027
		c-1.026-6.922-0.94-14.912,0.258-23.975c1.109-7.951,3.12-15.047,6.025-21.287c3.762-7.604,9.104-12.992,16.027-16.153
		c4.188-1.965,11.026-3.676,20.517-5.13l14.103-2.69C322.29,419.632,333.446,418.819,345.67,419.848"/>
	<path fill="#797FAD" d="M349.259,443.053c6.669-1.278,15.342,0.131,26.029,4.234l2.18,2.307l0.642,1.666
		c-8.806-4.019-17.226-5.641-25.262-4.871c-6.582,0.598-11.41,2.479-14.487,5.642c-1.455,1.452-5.558,3.12-12.31,5.002l-9.872,3.205
		c-3.592,1.367-6.198,2.82-7.82,4.358c-5.644,5.386-10.045,10.255-13.208,14.617c-5.643,7.863-8.804,15.428-9.488,22.693
		c-0.258,3.589,0,7.48,0.77,11.67l2.563,11.025c1.71,6.24,2.734,10.729,3.077,13.465c0.171,1.966,1.111,4.571,2.822,7.819
		c2.137,3.418,3.291,6.711,3.461,9.871l-2.694-0.896c-0.17-2.138-1.154-4.743-2.95-7.82l-2.563-3.848
		c-1.111-1.708-1.75-3.333-1.921-4.87l-0.514-6.411l-1.154-6.541l-3.078-11.41c-0.94-4.446-1.239-8.505-0.898-12.182
		c1.111-12.907,8.718-26.155,22.824-39.749c1.71-1.708,4.7-3.205,8.974-4.487l10.9-2.946c6.411-1.796,10.17-3.251,11.282-4.358
		C340.499,446.304,344.729,443.91,349.259,443.053"/>
	<path fill="#797FAD" d="M321.82,471.262l-3.078,2.566l-2.563,2.179c-1.199,0.771-2.353,1.282-3.461,1.538
		c-5.217,0.855-9.445,4.615-12.696,11.284c-2.137,4.272-3.717,9.445-4.743,15.513c-0.77,5.046-0.128,11.668,1.924,19.874
		l2.435,12.312c0.429,3.847,2.651,8.334,6.669,13.463c3.246,4.188,7.264,8.335,12.051,12.436c-1.795-1.022-3.634-1.363-5.515-1.022
		c-4.101-3.848-7.52-7.78-10.256-11.798c-3.248-4.785-5.086-9.018-5.513-12.691l-2.31-12.054c-1.108-4.615-1.793-7.991-2.052-10.128
		c-0.512-3.764-0.469-7.354,0.13-10.772c1.111-6.667,2.864-12.438,5.257-17.309c3.762-7.524,8.59-11.8,14.487-12.821l4.49-2.566
		c1.367-1.28,2.563-2.137,3.589-2.563c1.796-0.854,3.976-1.241,6.539-1.153c1.284,0,3.165-0.771,5.643-2.311l5.385-2.69
		c2.308-0.939,4.828-1.412,7.565-1.412l4.359-0.896c9.659-2.651,21.327-3.892,35.003-3.72c1.026,0,1.966,0.854,2.822,2.564
		l-25.003,1.668c-2.651,0.427-6.667,1.45-12.052,3.075l-5.129,0.896c-4.618,0-8.505,0.898-11.668,2.694
		c-2.822,1.796-5.172,2.648-7.053,2.563C325.026,469.895,323.272,470.321,321.82,471.262"/>
	<path fill="#797FAD" d="M657.626,526.268l2.308-0.256l4.359,0.771c11.287,5.98,18.209,12.478,20.771,19.49
		c2.308,6.237,2.438,11.366,0.387,15.385c-2.479,5.215-6.411,8.804-11.799,10.771c-3.245,1.284-9.271,2.394-18.078,3.333
		l-18.079,2.053c-8.036,1.195-15.471,3.034-22.311,5.516c-5.641,2.051-9.146,5.641-10.514,10.77
		c-0.855,2.99-1.025,7.991-0.514,15.002l0.258,10.897c-0.344,4.019-1.412,6.925-3.205,8.718
		c-8.462,8.377-22.012,12.183-40.646,11.412c-8.806-0.427-24.833-2.864-48.083-7.309l-28.081-4.104
		c-18.804,0-35.26,5.304-49.362,15.901c-12.995,9.744-26.501,16.454-40.519,20.131c-14.188,3.674-27.868,3.973-41.03,0.896
		c-7.437-1.711-13.634-4.317-18.59-7.821c-5.217-3.675-9.36-8.548-12.438-14.618c-0.77-1.366-1.111-2.436-1.026-3.205
		c0.085-0.855,0.597-1.026,1.54-0.515c10.685,5.303,23.205,8.036,37.567,8.207l0.898,3.72c-11.798,0-23.677-2.651-35.646-7.948
		c6.411,9.914,15.813,16.283,28.207,19.103c11.969,2.735,25.262,2.223,39.879-1.537c14.618-3.761,27.823-10.085,39.619-18.978
		c14.021-10.514,30.984-15.771,50.902-15.771c5.215,0,14.745,1.367,28.596,4.104c21.113,3.934,36.797,5.982,47.055,6.155
		c18.207,0.341,31.329-3.504,39.363-11.54c1.452-1.455,2.31-3.677,2.565-6.667l-0.256-9.104c-0.6-7.181-0.429-12.522,0.512-16.026
		c1.71-5.813,5.729-9.871,12.055-12.183c7.093-2.647,14.443-4.656,22.051-6.026l17.695-2.436c8.377-0.854,14.063-1.839,17.053-2.946
		c4.615-1.711,8.079-4.916,10.386-9.616c2.052-4.361,2.309-8.636,0.771-12.824C679.34,539.391,671.133,532.423,657.626,526.268"/>
	<path fill="#797FAD" d="M431.191,627.561c-6.325,4.273-12.82,7.993-19.487,11.156c0.17-1.284,0.767-2.522,1.793-3.718l8.207-5.001
		l8.079-5.771c4.614-3.076,12.009-6.367,22.182-9.871l1.279,1.281l1.54,0.771C446.578,618.886,438.714,622.605,431.191,627.561"/>
	<path fill="#797FAD" d="M641.472,566.402l-16.797,1.278l-23.335,2.438c-4.786,1.111-7.906,2.904-9.36,5.385
		c-2.137,3.589-1.967,10.259,0.513,20.002c1.112,4.274,1.112,8.42,0,12.438c-1.194,4.016-3.416,7.352-6.667,10
		c-5.556,4.613-13.333,7.181-23.335,7.693c-9.659,0.428-18.506-1.197-26.541-4.873c-8.89-4.104-20.046-6.88-33.464-8.335
		l1.153-3.717c7.948,1.109,15.727,2.99,23.336,5.641c3.934,1.367,7.264,2.736,10,4.104c7.521,3.419,15.941,4.786,25.259,4.101
		c9.318-0.767,16.669-3.376,22.055-7.819c5.641-4.7,7.394-11.11,5.257-19.232c-2.736-10.429-2.822-17.694-0.258-21.795
		c1.54-2.651,5.387-4.66,11.542-6.03l23.719-2.563c12.395-0.427,23.166-2.563,32.313-6.411c2.904-1.111,5.343-2.819,7.31-5.129
		c1.881-2.308,3.12-4.914,3.717-7.82c0.771-3.848-0.128-7.011-2.694-9.487c-2.137-2.309-6.239-4.615-12.308-6.924
		c-5.641-2.396-9.531-4.531-11.667-6.413l4.487,1.281l8.207,2.694l7.053,3.205c2.563,1.369,4.572,2.818,6.024,4.358
		c3.677,3.507,5.001,7.82,3.976,12.952c-0.686,3.245-2.222,6.24-4.617,8.975c-2.393,2.647-5.212,4.614-8.463,5.898
		C653.182,564.266,647.712,565.631,641.472,566.402"/>
	<path fill="#797FAD" d="M534.15,562.044c-18.462,0.597-29.917,1.836-34.36,3.717l-1.154-1.284c-0.426-1.022-0.472-1.622-0.13-1.793
		c2.222-1.025,6.626-1.796,13.208-2.311l22.313-0.896l38.85-1.923c14.447-1.37,25.089-3.592,31.926-6.667
		c5.044-2.223,9.491-5.303,13.336-9.231c4.274-4.532,5.982-8.42,5.129-11.668c-0.426-1.452-1.71-3.12-3.847-5.001l-6.539-5.129
		c-6.07-4.274-9.83-7.735-11.284-10.385l1.54,0.125c1.367,0.516,2.479,1.153,3.333,1.928l7.823,6.151l8.332,5.516
		c2.992,2.138,4.745,4.104,5.257,5.896c1.111,4.273-1.239,9.232-7.053,14.873c-4.786,4.702-9.787,8.206-14.999,10.514
		c-6.839,3.078-17.697,5.13-32.57,6.155L534.15,562.044"/>
	<path fill="#797FAD" d="M518.125,545.375c-0.341-0.171-0.341-0.643,0-1.412l1.025-0.896c7.863,3.587,22.14,4.443,42.826,2.563
		c18.55-1.796,30.002-3.934,34.361-6.411c2.308-1.369,4.061-3.461,5.257-6.285c1.369-3.159,1.966-6.795,1.796-10.896
		c-0.171-2.479-2.052-5.814-5.644-10.002c-3.16-3.935-5.343-7.096-6.536-9.488c-0.17-0.6,0.256-0.728,1.279-0.385
		c1.027,0.256,1.755,0.768,2.182,1.538l5.001,6.669l4.229,5.639c1.199,2.053,1.839,4.063,1.927,6.029
		c0.256,4.615-0.302,8.719-1.67,12.308c-1.364,3.59-3.331,6.154-5.896,7.692c-5.129,2.992-17.181,5.302-36.157,6.925
		C540.905,550.757,526.246,549.563,518.125,545.375"/>
	<path fill="#797FAD" d="M533.253,462.928c-1.538-1.108-2.052-2.007-1.538-2.69c0.429-0.686,1.412-0.47,2.95,0.64
		c14.788,10.942,21.583,19.746,20.386,26.415c-0.6,2.648-2.563,5.514-5.897,8.588l-10.13,7.439l-8.463,5.769
		c-3.163,2.648-4.743,5.385-4.743,8.207c0,1.796-0.258,2.179-0.77,1.153c-0.514-0.94-0.898-2.394-1.156-4.359
		c-0.256-1.796,0.898-3.848,3.464-6.153c1.537-1.367,4.529-3.593,8.978-6.668l9.616-7.053c3.074-2.733,4.827-5.215,5.257-7.437
		c0.512-2.138-0.17-4.788-2.053-7.948C546.333,473.955,541.034,468.656,533.253,462.928"/>
	<path fill="#797FAD" d="M518.511,455.875c10.17,6.069,15.257,12.951,15.257,20.645c0.085,4.617-1.753,9.317-5.513,14.104
		c-3.248,4.019-7.31,7.524-12.182,10.515l-1.154-0.768c-0.426-0.687-0.471-1.111-0.128-1.284c4.446-2.734,8.079-5.981,10.897-9.742
		c3.336-4.36,5.001-8.636,5.001-12.823c-0.085-3.248-1.71-6.795-4.871-10.643c-3.166-3.762-7.138-7.053-11.926-9.872l1.924-0.256
		L518.511,455.875"/>
	<path fill="#797FAD" d="M470.171,302.269l2.436,0.771l1.153,1.153c-6.24,0.855-11.667,3.376-16.282,7.564
		c-5.559,5.044-8.719,11.668-9.487,19.875c-0.174,2.222-0.601,2.864-1.282,1.924c-0.6-0.94-0.813-2.521-0.643-4.743
		C447.433,314.109,455.469,305.261,470.171,302.269"/>
	<path fill="#797FAD" d="M485.939,310.731c0.943,0.085,2.438,0.983,4.49,2.691l-17.823,1.156c-4.104,1.025-7.479,2.861-10.128,5.513
		c-2.308,2.308-4.063,5.513-5.257,9.616c-1.284,4.617-1.753,9.744-1.412,15.388c0.173,2.478-0.171,3.418-1.025,2.818
		c-0.854-0.682-1.367-2.222-1.54-4.614c-0.769-11.54,1.283-19.875,6.154-25.001C464.444,313.252,473.289,310.731,485.939,310.731"/>
	<path fill="#797FAD" d="M499.918,332.018c2.992-0.772,3.376-0.045,1.153,2.178c-6.925,5.387-11.668,12.353-14.233,20.899
		c-1.364,4.532-2.521,12.268-3.461,23.208l-2.179,16.027c-1.282,5.644-3.291,10.344-6.027,14.105
		c-0.256,0.341-0.384-0.473-0.384-2.438c-0.085-1.882,0.042-3.206,0.384-3.974c1.54-3.165,2.692-7.054,3.463-11.667l1.538-12.822
		c0.77-9.32,1.838-16.37,3.205-21.158c2.308-7.948,6.198-14.657,11.668-20.131c-7.008,2.822-12.521,7.395-16.539,13.72
		c-4.104,6.24-6.155,13.336-6.155,21.284l0.128,8.849l-3.333-8.462c-0.341-9.747,2.351-18.25,8.076-25.519
		C482.865,339.025,490.43,334.325,499.918,332.018"/>
	<path fill="#797FAD" d="M553.514,325.988l3.717-0.384l2.053,0.259c-3.418,2.222-9.744,4.7-18.978,7.434l-12.821,4.359
		c-4.443,1.796-7.649,3.677-9.615,5.644c-4.615,4.7-8.25,10.557-10.9,17.566c-3.16,8.377-3.206,15.001-0.125,19.875l6.024,8.974
		c8.462,12.821,14.659,23.552,18.593,32.186c0.94,1.966,1.025,3.12,0.256,3.461c-0.771,0.341-1.623-0.473-2.566-2.438
		c-2.563-5.727-5.769-11.668-9.615-17.823l-9.485-14.358l-7.309-9.103c-3.337-5.217-3.166-12.354,0.512-21.414
		c3.077-7.78,7.351-14.447,12.821-20.003c2.137-2.052,5.558-3.845,10.258-5.385c2.733-0.94,7.138-2.265,13.208-3.976
		C545.778,329.068,550.437,327.443,553.514,325.988"/>
	<path fill="#797FAD" d="M564.54,324.965c0.511-0.429,1.495-0.728,2.95-0.897l1.664,0.256c-2.052,2.052-5.126,4.316-9.229,6.797
		l-11.923,6.794c-10.429,5.556-16.97,9.787-19.619,12.694c-1.71,1.796-2.95,5.001-3.717,9.616
		c-0.601,3.248-0.898,6.626-0.898,10.128c0,1.112-0.77,1.582-2.307,1.411h-2.052c-1.028,0.171-1.711,0.43-2.053,0.771
		c-0.857,0.768-1.067,5.087-0.642,12.949c0.085,1.11,0.642,2.479,1.666,4.104l3.847,5.257c6.667,9.318,10.601,19.147,11.798,29.491
		c0,0.854-0.386,1.281-1.155,1.281c-0.771,0.171-1.239-0.171-1.41-1.025c-0.6-5.556-2.266-11.027-5.001-16.411l-7.564-11.926
		c-3.845-5.215-5.812-8.977-5.896-11.284c-0.515-8.119,0.381-13.12,2.69-15.001c0.601-0.512,1.367-0.94,2.309-1.281l1.924-0.387
		c0.256-3.331,0.896-6.707,1.921-10.128c1.199-4.188,2.739-7.309,4.618-9.36c2.565-2.819,9.317-7.179,20.258-13.078L564.54,324.965"
		/>
	<path fill="#797FAD" d="M610.828,312.783c0.514-0.429,1.623-0.898,3.333-1.41l2.052-0.258c-3.077,3.165-6.539,6.027-10.384,8.593
		c-3.848,2.648-6.669,5.127-8.462,7.434c-2.909,3.592-5.644,8.849-8.207,15.771c-1.625,4.104-4.831,8.121-9.616,12.054
		l-13.463,8.851c-6.84,4.103-10.771,7.05-11.798,8.846c-4.188,7.948-6.536,14.489-7.051,19.616
		c-0.514,5.129,0.686,9.917,3.589,14.36l-1.539-0.256l-2.308-1.409c-2.393-4.873-3.246-10.131-2.563-15.771
		c0.685-5.132,2.778-11.028,6.282-17.694c1.111-2.138,5.386-5.431,12.822-9.875l13.592-8.462c5.043-3.76,8.249-7.479,9.616-11.154
		c2.737-7.266,5.645-12.778,8.718-16.541c1.968-2.393,4.959-5.001,8.978-7.82L610.828,312.783"/>
	<path fill="#797FAD" d="M625.061,307.525c1.194-0.854,3.845-1.622,7.948-2.307c-5.726,3.845-10.897,8.334-15.513,13.461
		c-2.736,2.909-6.24,7.269-10.515,13.08c-1.113,1.537-1.966,3.674-2.565,6.41l-1.412,7.182l-2.051,8.334
		c-1.109,2.821-2.563,4.873-4.359,6.152l-9.872,6.029l-9.36,5.383c-8.974,5.473-14.486,9.701-16.539,12.696
		c-3.25,5.041-4.614,10.384-4.103,16.026c0.17,1.366,1.111,3.503,2.819,6.41l2.949,6.283l-1.921-1.282l-3.205-3.719
		c-1.881-3.248-2.909-5.727-3.079-7.438c-0.683-6.923,0.6-12.991,3.848-18.209c1.625-2.394,7.609-6.706,17.95-12.946l17.822-11.412
		c1.452-0.94,2.605-2.651,3.464-5.129l1.793-7.692c1.451-6.926,3.077-11.628,4.873-14.106c3.504-4.87,6.45-8.676,8.847-11.412
		C616.639,314.963,620.702,311.029,625.061,307.525"/>
	<path fill="#797FAD" d="M722.379,314.451c2.736,0.426,6.925,2.436,12.563,6.024c-7.862-2.99-15.13-4.314-21.796-3.973
		c-6.667,0.341-12.438,2.307-17.311,5.896c-4.871,3.589-8.547,8.59-11.025,15.001c-2.052,5.558-2.95,10.985-2.693,16.285
		l-1.538-1.668c-1.111-1.537-1.623-2.605-1.537-3.205c0.426-5.556,1.665-10.6,3.717-15.129c2.478-5.644,5.942-10.088,10.386-13.336
		c3.248-2.393,7.182-4.146,11.795-5.255L722.379,314.451"/>
	<path fill="#797FAD" d="M700.836,307.784c2.735-0.173,6.883,0.938,12.438,3.331c-6.84-1.279-13.165-1.194-18.976,0.258
		c-5.727,1.452-10.429,4.102-14.104,7.948c-2.991,3.166-5.001,6.925-6.026,11.284c-1.111,4.274-1.111,8.807,0,13.592
		c0.17,0.597-0.515,0.256-2.052-1.025l-2.436-3.078c-0.941-9.06,1.665-16.882,7.82-23.463
		C682.46,311.416,690.237,308.467,700.836,307.784"/>
	<path fill="#797FAD" d="M647.499,341.76c-5.214,1.966-9.616,6.325-13.208,13.08c6.326-4.359,11.327-7.182,15.004-8.463
		l16.155-0.515c5.556,1.284,12.65,8.207,21.283,20.772c1.025,1.54,1.878,4.444,2.565,8.719
		c-6.155-9.915-11.753-17.139-16.799-21.667c-2.99-2.651-5.514-4.188-7.564-4.617l-16.283,0.642
		c-3.592,1.196-9.189,4.444-16.797,9.747c-0.6,0.426-1.11,0.426-1.538,0c-0.514-0.259-0.685-0.728-0.514-1.412
		c4.359-10.429,9.959-16.968,16.797-19.616c5.385-2.137,12.094-2.012,20.13,0.384c2.052,0.6,4.831,2.776,8.334,6.539
		C664.038,340.052,654.85,338.855,647.499,341.76"/>
	<path fill="#797FAD" d="M601.339,390.227c-1.282-1.793-0.427-2.092,2.563-0.896c7.865,3.079,12.952,8.166,15.26,15.259
		c1.455,4.53,1.75,10.344,0.897,17.438c-0.427,2.995,0.598,5.855,3.075,8.593l7.184,6.155c3.675,2.988,5.854,5.343,6.536,7.051
		c0.087,0.343-0.64,0.343-2.177,0c-1.54-0.342-2.438-0.686-2.693-1.026l-4.486-3.973c-3.163-2.48-5.386-4.575-6.669-6.285
		c-2.224-2.819-3.331-5.77-3.331-8.847l0.125-1.925l0.386-6.665c0-11.196-4.188-18.85-12.566-22.95
		c3.418,5.812,5.129,11.495,5.129,17.051c0,3.677-0.728,8.036-2.18,13.08l-0.642,4.486c0,6.325,5.001,12.18,15.003,17.566
		c-2.311,1.023-3.762,1.367-4.361,1.026c-7.352-4.447-11.881-9.063-13.592-13.849c-0.768-2.223-0.813-5.513-0.128-9.875
		c1.711-6.409,2.565-10.939,2.565-13.592C607.409,401.811,605.441,395.87,601.339,390.227"/>
	<path fill="#63688F" d="M618.008,415.102c0-11.195-4.188-18.849-12.566-22.949c3.418,5.812,5.129,11.495,5.129,17.051
		c0,3.677-0.728,8.036-2.18,13.08l-0.514,2.563l-3.589-0.512l0.384-2.694c1.711-6.409,2.565-10.939,2.565-13.592
		c0.171-6.239-1.796-12.179-5.898-17.822c-1.282-1.793-0.427-2.092,2.563-0.896c7.865,3.079,12.952,8.166,15.26,15.259
		c1.455,4.53,1.75,10.344,0.897,17.438c-0.171,1.369-0.13,2.522,0.128,3.464h-2.565l-0.125-1.796l0.125-1.925L618.008,415.102"/>
	<path fill="#797FAD" d="M181.934,601.662c5.47-1.967,12.137-2.608,20-1.924l-0.125,1.924l-1.154,1.666l-18.209,1.153
		c-4.871,1.625-9.275,4.831-13.208,9.615c-2.137,2.651-4.273,5.899-6.411,9.746l-4.484,9.23c-3.25,6.754-6.2,11.284-8.849,13.594
		c-8.548,7.349-23.891,11.154-46.031,11.41c-19.575,0.258-36.414-1.924-50.519-6.539l-3.976-3.205l-1.667-2.438
		c10.429,5.048,26.883,7.823,49.365,8.338c25.045,0.598,42.099-2.992,51.161-10.771c2.308-1.967,5.042-6.2,8.204-12.696
		c4.018-8.032,7.778-14.146,11.284-18.335C171.591,607.218,176.461,603.629,181.934,601.662"/>
	<path fill="#63688F" d="M115.772,657.438c-10.514,0.938-21.669,0.853-33.464-0.257c-11.199-1.113-20.73-2.909-28.594-5.388
		c-5.556-2.99-9.701-5.983-12.437-8.975c-7.181-7.95-11.412-14.19-12.694-18.722c-1.453-5.299,0.299-10.599,5.257-15.897
		c-0.342,7.096,6.667,15.643,21.028,25.646C71.536,645.555,91.838,653.42,115.772,657.438"/>
	<path fill="#0D131A" d="M507.227,122.506c10.855,11.881,19.491,25.129,25.901,39.746c6.667,15.217,9.702,29.32,9.102,42.313
		c-0.344,7.865-1.966,15.174-4.873,21.926c-2.903,6.582-6.752,12.012-11.538,16.286c-13.765,12.478-31.713,18.803-53.854,18.976
		c-20.17,0.256-38.55-4.361-55.134-13.847c-16.326-9.318-29.576-15.175-39.749-17.567c-8.889-2.052-17.692-1.924-26.411,0.387
		c-12.054,3.245-21.585,3.845-28.593,1.793c-5.558-1.537-11.028-5.47-16.413-11.796c-2.563-3.077-3.506-5.129-2.822-6.154
		c0.685-1.026,2.137-0.472,4.362,1.665c6.067,5.558,11.623,9.104,16.667,10.645c7.095,2.137,16.115,1.751,27.055-1.154
		c9.744-2.565,19.104-2.693,28.081-0.386c9.06,2.308,21.625,8.036,37.695,17.181c16.068,9.232,33.636,13.936,52.697,14.105
		c21.028,0.086,38.124-5.769,51.287-17.566c8.892-8.036,13.68-19.619,14.361-34.748c0.685-12.821-1.796-26.2-7.438-40.13
		c-5.641-14.021-13.592-26.629-23.85-37.828c-17.863-19.658-45.216-34.702-82.059-45.131c-37.012-10.514-74.153-7.78-111.424,8.207
		c-32.651,13.93-59.021,34.703-79.111,62.312c-7.349,10.002-17.994,26.501-31.926,49.495
		c-11.795,19.574-21.113,34.404-27.953,44.489c-11.367,16.499-23.035,30.945-35.002,43.341
		c-15.13,15.726-23.25,30.216-24.362,43.466c-0.685,7.692,1.709,17.692,7.18,30.003l5.001,12.438
		c1.367,4.532,1.794,8.762,1.281,12.693l-2.435,2.95c-1.454,1.366-2.137,1.795-2.052,1.281c0.513-3.505-0.085-8.377-1.796-14.617
		c-1.367-5.129-3.12-10-5.257-14.615l-6.539-14.233c-2.137-5.556-3.12-10.858-2.949-15.899c0.427-13.162,9.104-28.507,26.029-46.031
		c12.053-12.563,23.85-26.971,35.387-43.211c8.292-11.795,17.78-26.583,28.467-44.363l15.896-26.283
		c6.24-10.002,11.798-18.379,16.669-25.131c20.346-27.783,45.859-48.854,76.548-63.215c38.379-17.863,78.171-20.94,119.372-9.229
		C459.828,85.664,487.992,101.477,507.227,122.506"/>
	<path fill="#0D131A" d="M365.8,119.173c12.566,11.71,19.19,27.479,19.875,47.313c0.17,4.444-0.256,6.794-1.284,7.05
		c-0.938,0.344-1.666-1.708-2.177-6.152c-2.052-18.636-8.764-33.253-20.13-43.853c-11.713-10.854-26.2-15.259-43.469-13.207
		c-3.504,0.341-4.828-0.043-3.975-1.154c0.855-1.111,3.08-2.006,6.667-2.693C338.404,103.401,353.235,107.633,365.8,119.173"/>
	<path fill="#0D131A" d="M343.107,110.71c1.538-0.17,3.16,0.384,4.871,1.666c1.796,1.369,2.009,2.052,0.642,2.052
		c-12.565,0.341-22.568,6.282-30.005,17.822c-6.152,9.659-9.317,20.557-9.488,32.696c-0.085,4.273-0.597,6.026-1.54,5.257
		c-1.023-0.768-1.665-3.333-1.921-7.692c-0.77-13.763,2.779-25.646,10.642-35.646C323.574,117.718,332.507,112.333,343.107,110.71"
		/>
	<path fill="#0D131A" d="M379.776,189.18c1.455-2.563,2.648-3.547,3.592-2.949c0.853,0.599,0.554,2.222-0.898,4.873
		c-6.069,10.94-15.686,16.112-28.848,15.513c-11.713-0.597-22.44-5.212-32.185-13.845c-2.308-2.052-3.506-3.72-3.591-5.001
		c0-1.199,1.239-0.898,3.719,0.897c10.685,8.207,21.798,12.48,33.335,12.821C366.784,201.831,375.076,197.727,379.776,189.18"/>
	<path fill="#0D131A" d="M488.378,174.051c-8.633-17.011-13.037-31.673-13.208-43.979c-0.171-12.052,3.719-17.01,11.667-14.873
		c2.137,0.6,3.336,1.367,3.592,2.308c0.341,0.94-0.557,1.111-2.694,0.514c-6.324-1.71-8.548,4.314-6.667,18.079
		c1.54,12.137,5.171,24.702,10.9,37.697c1.364,3.16,1.495,4.785,0.383,4.871C491.242,178.666,489.918,177.126,488.378,174.051"/>
	<path fill="#0D131A" d="M479.528,121.352c0.085-1.196,0.344-1.839,0.772-1.924c4.188-1.111,8.931,0,14.231,3.333
		c6.667,4.273,13.378,11.028,20.13,20.258c6.411,8.719,10.128,15.771,11.155,21.159c2.394,12.052,0.257,20.514-6.41,25.388
		c-5.303,3.845-10.858,4.699-16.67,2.563c-2.65-0.94-4.188-2.052-4.614-3.336c-0.515-1.364,0.554-1.452,3.206-0.256
		c5.638,2.394,10.639,1.754,14.999-1.921c5.046-4.273,6.584-11.369,4.616-21.284c-1.024-5.131-4.4-11.841-10.13-20.13
		c-6.239-8.977-12.35-15.388-18.335-19.235c-4.7-2.992-8.763-4.016-12.179-3.077C479.788,122.975,479.528,122.463,479.528,121.352"
		/>
	<path fill="#0D131A" d="M440.681,256.111l3.977,0.126c2.393,0.514,3.376,0.942,2.949,1.284
		c-6.925,5.726-11.713,17.521-14.361,35.387c-3.25,21.969,0.213,42.27,10.384,60.905c4.703,8.633,7.609,17.737,8.721,27.312
		c1.111,9.744,0.128,18.462-2.95,26.157c-2.308,5.812-5.812,10.813-10.514,15.001c-4.53,4.104-9.744,7.096-15.643,8.977
		c-10.515,3.331-22.053,4.569-34.617,3.718c-12.225-0.855-24.108-3.593-35.646-8.207l-3.976-3.333
		c-2.48-2.651-3.464-4.273-2.95-4.873c11.625,5.813,24.276,9.444,37.953,10.899c13.848,1.452,26.414,0.384,37.697-3.205
		c10.939-3.507,18.633-10.771,23.078-21.799c2.994-7.266,4.063-15.217,3.208-23.85c-0.771-8.548-3.333-16.88-7.693-25.001
		c-10.514-19.317-14.703-39.152-12.565-59.493C429.184,282.096,433.5,268.763,440.681,256.111"/>
	<path fill="#0D131A" d="M319.771,228.414l2.819-0.384c1.625,0.171,2.265,0.427,1.924,0.768
		c-18.55,20.005-28.806,46.376-30.772,79.112c-2.052,34.707,6.366,66.033,25.257,93.984c0.943,1.368-0.04,1.454-2.949,0.258
		c-2.819-1.196-4.871-2.821-6.153-4.873c-16.925-27.609-23.89-58.126-20.9-91.547C291.73,274.617,301.989,248.843,319.771,228.414"
		/>
	<path fill="#0D131A" d="M337.975,320.731l16.158-4.229l22.31-1.284c7.437,0.599,13.592,3.847,18.462,9.746
		c2.48,3.075,5.899,9.145,10.258,18.207c3.848,8.033,7.138,13.677,9.872,16.925c13.08,15.729,19.834,30.004,20.261,42.826
		c0.341,8.462-2.137,16.069-7.439,22.821c-0.341,0.515-1.666,0.897-3.973,1.154l-2.95-0.13l0.128-0.255
		c5.727-6.752,8.933-13.635,9.619-20.643c1.023-12.738-5.171-27.183-18.593-43.34c-2.992-3.59-6.453-9.488-10.386-17.692
		c-3.762-7.951-6.967-13.464-9.616-16.542c-4.359-5.044-9.832-7.862-16.413-8.462l-19.744,0.64l-13.85,3.461
		c-0.512,0.173-1.452-0.296-2.819-1.409C337.89,321.504,337.463,320.904,337.975,320.731"/>
	<path fill="#0D131A" d="M344.386,322.399c3.506,1.366,5.601,2.821,6.285,4.361c0.682,1.537-0.685,1.665-4.104,0.381
		c-10.514-3.93-19.062-6.152-25.643-6.666c-11.113-0.768-20.474,2.308-28.081,9.232c-0.341,0.344-0.642-0.171-0.898-1.538
		c-0.256-1.369-0.215-2.222,0.128-2.565c8.207-7.01,17.394-10.216,27.567-9.616C325.455,316.247,333.701,318.384,344.386,322.399"/>
	<path fill="#0D131A" d="M462.734,258.675l4.871,0.128l3.593,0.898c-7.267,4.529-12.952,9.187-17.056,13.975
		c-4.871,5.642-8.204,12.268-10,19.875c-1.367,6.067-1.239,13.592,0.384,22.565c2.053,10.94,6.027,20.602,11.927,28.979
		c17.865,25.558,24.146,49.535,18.849,71.931c-5.729,24.36-24.404,38.678-56.031,42.95c-1.625,0.43-3.035,1.327-4.233,2.694
		c-1.538,1.71-3.291,4.614-5.258,8.718l-2.051-0.512l-2.563-0.512c2.735-5.729,4.916-9.576,6.542-11.542
		c1.964-2.309,4.483-3.632,7.563-3.974c27.865-3.336,44.62-16.327,50.261-38.979c5.3-21.372-0.515-44.235-17.439-68.598
		c-5.726-8.121-9.742-16.967-12.052-26.543c-2.223-9.486-2.521-18.591-0.896-27.309
		C441.877,278.976,449.743,267.394,462.734,258.675"/>
	<path fill="#0D131A" d="M444.525,287.779c-0.427-0.256-0.512-1.537-0.256-3.845c0.341-2.396,0.729-3.464,1.154-3.206l8.207,5.255
		l8.59,5.899c14.276,9.232,24.663,15.43,31.159,18.593c13.248,6.411,26.498,10.13,39.749,11.153l45.003-1.921
		c7.778-1.54,18.036-4.745,30.771-9.616l17.567-6.925c7.093-2.566,13.933-4.316,20.517-5.257c18.119-2.651,39.403,0.17,63.853,8.462
		c24.446,8.377,41.329,18.593,50.646,30.645c9.573,12.396,14.062,24.276,13.461,35.646c-0.597,10.256-4.699,16.882-12.307,19.872
		c-8.977,3.592-18.764,3.08-29.363-1.538c-9.06-3.93-16.538-9.615-22.438-17.053c-1.369-1.71-4.231-2.949-8.593-3.717
		c-4.785-0.771-8.932-0.345-12.436,1.281c-0.512,0.17-0.77-0.384-0.77-1.668c-0.085-1.367,0.128-2.138,0.642-2.308
		c4.274-1.881,8.933-2.438,13.976-1.666c4.787,0.768,8.163,2.348,10.13,4.743c4.443,5.727,10.685,10.472,18.721,14.232
		c10.256,4.871,19.702,5.6,28.335,2.179c6.925-2.734,9.704-9.146,8.334-19.232c-1.367-9.4-5.556-18.676-12.565-27.823
		c-8.463-11.028-23.634-20.343-45.518-27.953c-22.994-8.033-44.321-10.599-63.982-7.692c-6.667,0.94-13.418,2.48-20.258,4.617
		c-3.76,1.194-9.442,3.206-17.053,6.025c-12.48,4.785-22.739,7.993-30.772,9.616c-13.506,2.65-28.891,3.335-46.159,2.052
		c-13.848-1.026-27.567-4.658-41.158-10.898c-7.863-3.674-18.377-9.744-31.54-18.206
		C453.159,292.908,447.946,289.66,444.525,287.779"/>
	<path fill="#0D131A" d="M567.875,426.515c0.512,0,1.022,1.068,1.538,3.205l0.128,3.077l-37.825-2.052
		c-5.555-1.025-12.864-3.077-21.923-6.154l-7.951-2.95l-8.849-2.563c-3.418-0.687-5.126,0.685-5.126,4.101
		c0,3.592,2.092,7.908,6.279,12.952c6.411,7.779,15.046,13.634,25.902,17.566c4.958,1.881,14.617,4.273,28.977,7.179
		c20.091,4.104,32.997,9.02,38.724,14.747c5.47,5.468,7.053,12.992,4.743,22.566c-2.138,8.803-6.067,14.83-11.793,18.077
		c-2.651,1.623-4.66,2.181-6.027,1.669c-1.282-0.515-0.555-1.497,2.18-2.949c4.956-2.651,8.161-8.036,9.616-16.157
		c1.625-8.634-0.128-15.516-5.257-20.643c-3.163-3.162-7.82-5.729-13.976-7.694c-3.677-1.279-10.003-2.819-18.977-4.615
		c-14.362-2.904-24.575-5.513-30.646-7.82c-11.628-4.358-20.856-10.685-27.694-18.977c-6.07-7.266-8.036-13.635-5.899-19.107
		c1.795-4.869,5.041-6.837,9.744-5.896c4.703,1.026,10.471,2.691,17.31,5.002c7.95,2.821,14.918,4.699,20.901,5.641L567.875,426.515
		"/>
	<path fill="#0D131A" d="M702.246,367.919c-1.793,5.298-1.921,9.872-0.381,13.72c1.448,3.676,4.954,7.863,10.511,12.563
		c10.173,8.636,16.928,16.712,20.259,24.232c3.506,8.207,4.063,17.695,1.668,28.466c-2.052,9.231-7.65,15.43-16.797,18.593
		c-9.488,3.248-18.55,1.583-27.183-5.001c-2.223-1.623-4.314-3.932-6.28-6.925l-4.874-8.332l-5.899-10.132
		c-2.308-2.82-5.214-4.315-8.718-4.486c-3.674-0.256-5.172-0.94-4.487-2.051c0.683-1.111,2.864-1.541,6.539-1.285
		c4.359,0.259,7.948,2.012,10.771,5.258l6.411,10.9c3.847,7.178,7.223,11.881,10.13,14.103c6.836,5.215,13.761,6.624,20.771,4.231
		c7.008-2.309,11.497-7.479,13.461-15.517c2.565-10.255,2.48-19.062-0.256-26.41c-2.735-7.354-8.761-14.918-18.079-22.695
		c-5.897-5.129-9.658-9.274-11.283-12.438c-2.137-4.019-2.733-9.488-1.796-16.413c0.085-0.342,1.069-0.555,2.95-0.64
		L702.246,367.919"/>
	<path fill="#0D131A" d="M550.053,405.1l7.82,3.205c4.358,2.312,7.351,5.304,8.974,8.979l6.542,16.797
		c5.212,10.514,10.725,16.413,16.539,17.694c5.473,1.195,10.216,1.195,14.231,0c2.396-0.771,5.558-2.48,9.49-5.13
		c4.104-3.162,8.162-4.959,12.181-5.385c4.788-0.6,11.668,0.17,20.645,2.309l9.744,1.668c2.734-0.086,5.044-1.199,6.922-3.336
		c1.625-1.883,3.12-2.99,4.49-3.334l10.128-0.641c0.514,0,1.028,1.538,1.54,4.615l-8.974,0.256c-1.625,0.427-3.08,1.369-4.359,2.822
		c-2.651,2.992-5.345,4.742-8.082,5.257l-10.771-1.412c-8.292-2.393-14.742-3.589-19.359-3.589c-4.874,0-8.893,1.326-12.052,3.975
		c-4.873,3.334-8.377,5.386-10.515,6.155c-4.959,1.967-10.429,2.265-16.414,0.897c-7.521-1.625-13.719-7.354-18.59-17.182
		l-7.438-20.261c-1.367-3.162-4.444-5.938-9.23-8.334c-0.6-0.341-3.25-1.41-7.951-3.205c-2.904-1.367-3.632-2.521-2.18-3.462
		C544.921,403.52,547.144,403.732,550.053,405.1"/>
	<path fill="#0D131A" d="M630.83,327.656c0.597-1.367,2.563-2.137,5.898-2.308c6.667-0.429,15.086,2.052,25.257,7.437
		c11.714,6.24,19.704,13.933,23.979,23.08c6.24,13.162,8.122,25.132,5.644,35.9c-2.308,9.829-7.479,16.413-15.515,19.744
		c-9.06,3.763-17.522,3.894-25.387,0.387c-4.615-2.138-8.89-5.77-12.822-10.9c-3.25-4.273-5.643-8.633-7.181-13.077
		c-1.111-3.16-3.76-5.899-7.948-8.206c-2.48-1.367-7.098-3.16-13.851-5.383c-3.933-1.369-6.367-2.864-7.309-4.489
		c-0.938-1.711,0.557-1.922,4.489-0.643c8.463,2.735,14.358,4.959,17.691,6.669c5.559,2.992,9.063,6.624,10.515,10.897
		c1.113,3.248,3.035,6.626,5.771,10.13c3.589,4.53,7.693,7.82,12.309,9.872c6.84,3.078,14.105,2.992,21.798-0.256
		c7.095-2.992,11.412-9.274,12.95-18.849c1.455-9.573-0.3-19.658-5.258-30.258c-3.848-8.207-11.668-15.388-23.463-21.542
		c-10.256-5.3-18.122-7.607-23.592-6.926C631.472,329.367,630.147,328.937,630.83,327.656"/>
	<path fill="#0D131A" d="M133.338,367.146c0.94-3.416,2.009-4.742,3.206-3.974c1.283,0.854,1.581,3.035,0.898,6.539
		c-1.795,10.343-5.513,17.865-11.155,22.565c-3.248,2.735-8.292,5.771-15.13,9.104c-5.555,3.592-9.488,6.627-11.795,9.104
		c-3.933,4.018-6.71,9.017-8.334,15.001c-2.479,8.633-2.992,16.371-1.539,23.208c0.855,4.018,3.035,9.274,6.54,15.771
		c2.563,4.871,4.274,8.676,5.128,11.412c1.283,4.359,1.496,8.891,0.641,13.59c-0.769,4.788-3.033,8.892-6.794,12.311l-12.181,8.079
		c-6.412,3.589-11.027,6.666-13.849,9.231c-4.53,4.273-7.522,9.53-8.975,15.771c-1.026,4.443-0.812,9.145,0.642,14.104
		c1.538,4.958,4.188,9.659,7.95,14.104c6.239,7.438,14.958,13.464,26.156,18.078c17.267,7.267,38.252,10.088,62.957,8.463
		c4.274-0.256,5.769,0.341,4.487,1.796c-1.281,1.369-4.061,2.18-8.334,2.438c-20.515,1.364-38.807-0.387-54.878-5.257
		c-15.899-4.961-28.165-12.524-36.799-22.696c-4.274-5.044-7.222-10.301-8.846-15.771s-1.838-10.728-0.642-15.771
		c1.625-6.755,5.472-12.82,11.54-18.206c3.334-2.992,8.677-6.627,16.028-10.9c5.214-2.904,8.846-5.342,10.898-7.31
		c3.077-2.818,5.001-6.279,5.77-10.384c0.685-4.018,0.428-7.822-0.769-11.412l-4.744-9.871c-4.188-7.865-6.753-13.422-7.694-16.67
		c-2.137-7.608-1.922-15.985,0.641-25.131c1.796-6.411,5.172-12.01,10.13-16.797c2.478-2.479,6.966-5.855,13.462-10.131
		l14.232-10.771C127.397,381.639,131.116,375.098,133.338,367.146"/>
	<path fill="#0D131A" d="M184.242,377.405l-3.078-5.514c-3.589-7.179-6.027-12.607-7.309-16.283
		c-2.052-5.899-3.078-11.753-3.078-17.567c0-4.018,0.597-6.624,1.796-7.82c1.196-1.284,1.625,0.171,1.282,4.359
		c-0.344,4.956,0.77,10.771,3.333,17.437c1.284,3.251,3.975,8.889,8.079,16.925c1.623,3.251,2.478,6.752,2.566,10.515
		c0.085,3.933-0.258,4.916-1.028,2.949L184.242,377.405"/>
	<path fill="#0D131A" d="M182.318,359.713c-0.6-4.188-0.128-5.899,1.412-5.132c1.538,0.772,2.606,3.251,3.206,7.439l2.307,14.361
		c3.419,21.625,4.916,37.566,4.487,47.825c-0.344,6.922,0.341,13.805,2.052,20.642c1.026,3.934,3.032,9.747,6.027,17.439
		l7.434,18.593c2.822,8.204,4.404,16.325,4.746,24.358c1.625,37.271-0.042,65.607-5.001,85.011
		c-4.871,19.147-12.821,28.979-23.847,29.491c-3.762,0.17-5.899-0.387-6.411-1.666c-0.429-1.369,1.281-2.137,5.126-2.311
		c9.576-0.427,16.413-10.045,20.517-28.849c4.188-18.721,5.513-45.901,3.973-81.547c-0.341-7.951-1.666-15.731-3.973-23.336
		c-0.855-3.08-3.078-9.189-6.667-18.337l-7.181-18.078c-2.395-7.353-3.418-14.532-3.077-21.543
		c0.682-15.642-0.171-31.326-2.563-47.055L182.318,359.713"/>
	<path fill="#0D131A" d="M587.748,500.369c-0.515-0.512-0.686-1.668-0.515-3.462c0.088-1.881,0.302-2.565,0.643-2.052
		c6.411,8.033,17.01,14.617,31.798,19.743c14.361,4.959,31.073,8.036,50.135,9.232c16.667,1.111,28.337,3.846,35.003,8.207
		c4.188,2.821,6.84,7.096,7.948,12.821c0.943,4.617,1.796,7.521,2.566,8.719c1.881,2.65,5.896,5.129,12.051,7.437
		c8.978,3.336,15.602,6.798,19.875,10.387c6.752,5.727,9.062,12.396,6.925,20.003c-2.137,7.437-7.607,12.992-16.411,16.669
		c-6.583,2.732-16.37,4.83-29.365,6.282l-18.717,2.052c-7.951,0.939-14.575,2.138-19.875,3.59
		c-18.547,5.044-32.352,10.985-41.417,17.822c-9.229,6.923-13.93,15.044-14.101,24.36c-0.516,24.106-5.432,41.674-14.748,52.698
		c-5.385,6.326-13.035,10.771-22.949,13.334c-20.858,5.474-41.971,4.83-63.341-1.922c-17.01-5.473-37.356-16.112-61.033-31.928
		c-9.832-6.496-21.5-9.446-35.003-8.848c-3.677,0.174-15.089,2.01-34.236,5.517c-13.163,2.308-22.824,2.904-28.979,1.793
		c-7.008-1.281-17.994-5.896-32.952-13.848c-8.034-4.529-14.274-7.905-18.718-10.129c-7.778-3.933-14.875-6.626-21.287-8.077
		c-6.496-1.452-14.828-1.497-25.001-0.128l-30.002,5.898l-41.417,8.076l-46.927,2.051c-28.039-2.307-52.442-7.394-73.213-15.259
		c-24.021-9.06-37.056-19.915-39.107-32.565c-1.368-8.207,0.983-15.473,7.051-21.799c3.42-3.674,9.659-8.078,18.721-13.205
		c5.813-3.25,10.343-6.2,13.591-8.849c4.701-3.763,8.079-7.865,10.129-12.311c0.257-0.427,1.155-0.086,2.694,1.028
		c1.452,1.108,2.094,1.878,1.922,2.309c-2.308,4.869-5.898,9.273-10.77,13.204l-14.232,8.978
		c-7.95,4.443-13.249,8.161-15.899,11.153c-4.274,4.788-5.855,10.728-4.744,17.822c1.88,11.54,14.275,21.241,37.183,29.106
		c19.062,6.581,42.056,10.982,68.982,13.205l45.262-1.409c9.574-1.196,22.907-3.589,40.002-7.181
		c14.191-2.992,24.449-4.831,30.774-5.514c10.258-1.283,18.892-1.113,25.899,0.513c6.84,1.54,13.936,3.933,21.284,7.181
		c4.359,1.881,10.429,4.913,18.209,9.102c14.362,7.61,24.916,11.97,31.67,13.08c5.385,0.855,14.745,0.085,28.079-2.308
		c15.901-2.821,28.124-4.146,36.67-3.976c14.617,0.256,27.227,3.933,37.825,11.025c22.482,15.131,41.928,25.131,58.339,30.005
		c19.832,5.896,40.005,6.154,60.521,0.771c22.051-5.813,33.423-25.348,34.104-58.599c0.17-10.341,5.47-19.7,15.899-28.077
		c10.344-8.292,25.089-15.045,44.235-20.262c7.692-2.137,19.79-4.144,36.288-6.023c13.077-1.37,21.967-2.864,26.666-4.489
		c7.439-2.563,12.013-6.923,13.721-13.078c2.052-7.096,0.813-12.736-3.718-16.925c-2.647-2.563-7.99-5.342-16.026-8.334
		c-7.353-2.737-11.969-4.959-13.849-6.667c-1.796-1.625-3.076-4.532-3.847-8.721c-1.111-5.642-3.376-9.787-6.795-12.437
		c-5.813-4.529-16.37-7.266-31.672-8.207c-18.289-1.109-34.617-4.188-48.979-9.231C606.21,514.686,595.27,508.231,587.748,500.369"
		/>
	<path fill="#0D131A" d="M259.892,534.475c1.708-1.195,4.058-0.854,7.05,1.025c4.276,2.736,4.447,3.291,0.514,1.668
		c-0.514-0.256-1.924,0.512-4.234,2.309c-3.93,3.677-7.863,11.024-11.793,22.054c-3.848,10.6-5.771,18.977-5.771,25.129
		c0,7.438,2.094,13.424,6.283,17.953c3.591,3.846,7.607,5.77,12.054,5.77l3.461-0.768l2.563-2.052l4.745-3.721
		c2.478-1.366,5.428-1.711,8.846-1.024c1.367,0.256,2.777,1.366,4.231,3.333l3.847,5.896l5.385,7.31
		c2.478,2.735,5.129,4.788,7.948,6.154c3.847,1.882,5.558,3.376,5.129,4.489c-0.429,1.196-3.248,0.513-8.462-2.052
		c-3.248-1.625-5.941-3.546-8.079-5.771l-4.999-6.794l-2.95-4.745c-1.111-1.711-2.009-2.648-2.691-2.818
		c-2.736-0.6-4.961-0.6-6.669,0c-0.94,0.341-2.18,1.196-3.72,2.563c-3.246,2.821-6.451,4.23-9.616,4.23
		c-5.467,0-10.298-2.094-14.487-6.282c-5.129-5.042-7.695-11.882-7.695-20.517c0-6.923,1.926-16.368,5.771-28.335
		C250.83,545.887,255.274,537.552,259.892,534.475"/>
	<path fill="#0D131A" d="M489.788,552.169c-1.452-1.708-1.881-2.479-1.282-2.308c11.114,1.879,20.343-0.383,27.697-6.794
		c6.667-5.814,9.399-12.271,8.204-19.363c-1.794-10.685-7.222-19.317-16.285-25.898c-9.061-6.584-20.686-10.344-34.873-11.286
		c-35.902-2.309-62.232-9.229-78.984-20.771c-4.188-2.821-9.531-7.181-16.029-13.08l-17.181-16.282
		c-11.796-11.281-19.403-18.164-22.822-20.643c-2.651-1.966-9.275-5.771-19.875-11.412c-8.977-4.614-14.958-7.82-17.951-9.616
		c-6.496-3.847-11.284-7.438-14.361-10.77c-7.264-7.865-14.572-19.232-21.926-34.108c-8.033-16.325-12.051-29.362-12.051-39.106
		c0-4.873,0.727-7.948,2.179-9.232c1.37-1.282,2.052,0.514,2.052,5.388c0,9.57,3.976,22.736,11.924,39.49
		c7.095,15.217,13.85,26.285,20.261,33.21c2.819,3.075,7.479,6.366,13.975,9.872c3.762,2.052,9.659,5.041,17.692,8.976
		c10.344,5.387,17.098,9.273,20.261,11.668c3.677,2.649,11.452,9.66,23.335,21.026l16.925,17.313
		c6.752,6.923,12.009,11.668,15.771,14.23c7.951,5.474,18.419,9.746,31.412,12.821c12.055,2.821,27.269,4.831,45.648,6.027
		c14.958,0.939,27.737,5.257,38.339,12.948c10.599,7.609,16.879,17.142,18.846,28.594c1.455,8.548-1.238,16.071-8.076,22.567
		c-7.438,7.008-17.354,10.088-29.745,9.229C492.18,554.775,491.157,553.877,489.788,552.169"/>
	<path fill="#0D131A" d="M240.785,509.984c-2.393-4.104-3.246-6.922-2.563-8.462s2.222-0.257,4.615,3.848
		c7.181,12.565,18.164,24.188,32.952,34.873c13.336,9.661,26.416,16.328,39.237,20.005c10.685,3.075,20,9.445,27.951,19.102
		c7.951,9.662,12.182,19.789,12.696,30.39c0.853,15.9,2.649,27.184,5.383,33.85c3.933,9.662,10.9,14.788,20.9,15.388
		c6.925,0.516,12.949-1.582,18.081-6.282c3.76-3.418,6.707-7.905,8.844-13.464c2.137-5.642,3.293-11.882,3.463-18.722
		c0.085-4.528-0.429-9.356-1.538-14.485l-3.591-12.822c-1.881-5.813-2.95-9.53-3.206-11.155c-0.768-3.504-0.682-6.71,0.256-9.616
		c1.114-3.419,2.269-5.215,3.461-5.385c1.199-0.086,1.241,1.582,0.13,5.001c-0.685,2.393-0.6,5.428,0.256,9.102l3.333,10.9
		l4.104,13.205c1.367,5.471,1.966,10.6,1.793,15.388c-0.171,7.353-1.495,14.276-3.973,20.772
		c-2.479,6.496-5.729,11.583-9.747,15.257c-2.819,2.566-6.238,4.487-10.256,5.771l-11.926,1.408
		c-11.367-0.77-19.573-6.581-24.615-17.438c-3.677-8.119-5.941-20.259-6.797-36.416c-0.512-10.085-4.146-19.573-10.9-28.462
		c-6.922-9.318-15.299-15.215-25.129-17.695c-15.387-3.845-29.363-10.344-41.928-19.49
		C258.909,534.86,248.48,523.403,240.785,509.984"/>
	<path fill="#0D131A" d="M449.783,519.987c-4.019-2.223-5.343-3.677-3.974-4.359c1.281-0.771,3.934-0.088,7.948,2.05
		c18.036,9.744,31.841,21.412,41.417,35.006c9.571,13.59,14.146,28.035,13.72,43.336c-0.514,17.269-8.079,27.995-22.695,32.185
		c-6.155,1.796-12.438,1.796-18.85,0c-6.667-1.796-12.265-5.172-16.797-10.128c-2.393-2.565-4.444-5.856-6.152-9.874l-3.848-11.154
		c-2.907-9.746-5.302-16.072-7.181-18.977c-3.934-6.24-10.215-10.215-18.85-11.927c-3.333-0.685-4.486-1.451-3.461-2.308
		l6.539-0.258c8.718,1.796,15.302,5.813,19.746,12.054c2.734,3.678,5.471,10.002,8.207,18.978c1.452,4.873,2.648,8.42,3.589,10.642
		c1.538,3.675,3.376,6.669,5.513,8.978c8.034,8.804,17.865,11.451,29.491,7.947c12.138-3.589,18.422-12.438,18.85-26.541
		c0.426-14.702-3.977-28.635-13.208-41.798C480.472,540.587,467.137,529.303,449.783,519.987"/>
	<path fill="#0D131A" d="M425.936,567.682c0.769-0.085,2.009,0.473,3.717,1.668c1.71,1.196,2.269,1.797,1.668,1.797
		c-7.606,0.171-13.119,1.323-16.541,3.462c-3.504,2.222-6.109,6.068-7.819,11.539c-0.256,0.598-0.686-0.085-1.284-2.052
		c-0.597-1.967-0.725-3.291-0.381-3.974c1.964-4.617,4.743-7.822,8.332-9.616C416.273,569.137,420.377,568.196,425.936,567.682"/>
	<path fill="#0D131A" d="M369.773,166.998c1.199-0.171,2.052,1.025,2.566,3.592c0.514,2.648,0.17,4.143-1.026,4.484
		c-1.282,0.258-2.222-0.854-2.819-3.331v-3.08C368.75,167.64,369.176,167.083,369.773,166.998"/>
	<path fill="#0D131A" d="M499.147,161.484c0.94-0.514,1.924,0.512,2.949,3.075l0.387,2.566l-0.643,1.412l-1.54-0.387l-1.41-2.436
		C498.21,163.491,498.295,162.082,499.147,161.484"/>
</g>
</svg>
